<?xml version="1.0" encoding="UTF-8" standalone="no"?>
<!-- Created with Inkscape (http://www.inkscape.org/) -->

<svg
   xmlns:dc="http://purl.org/dc/elements/1.1/"
   xmlns:cc="http://creativecommons.org/ns#"
   xmlns:rdf="http://www.w3.org/1999/02/22-rdf-syntax-ns#"
   xmlns:svg="http://www.w3.org/2000/svg"
   xmlns="http://www.w3.org/2000/svg"
   xmlns:sodipodi="http://sodipodi.sourceforge.net/DTD/sodipodi-0.dtd"
   xmlns:inkscape="http://www.inkscape.org/namespaces/inkscape"
   width="874.56299"
   height="777.3761"
   id="svg2"
   version="1.1"
   inkscape:version="0.48.4 r9939"
   sodipodi:docname="New document 1">
  <defs
     id="defs4" />
  <sodipodi:namedview
     id="base"
     pagecolor="#ffffff"
     bordercolor="#666666"
     borderopacity="1.0"
     inkscape:pageopacity="0.0"
     inkscape:pageshadow="2"
     inkscape:zoom="0.49497475"
     inkscape:cx="441.02537"
     inkscape:cy="396.53962"
     inkscape:document-units="px"
     inkscape:current-layer="g3032"
     showgrid="false"
     fit-margin-top="0"
     fit-margin-left="0"
     fit-margin-right="0"
     fit-margin-bottom="0"
     inkscape:window-width="1366"
     inkscape:window-height="706"
     inkscape:window-x="-8"
     inkscape:window-y="-8"
     inkscape:window-maximized="1" />
  <metadata
     id="metadata7">
    <rdf:RDF>
      <cc:Work
         rdf:about="">
        <dc:format>image/svg+xml</dc:format>
        <dc:type
           rdf:resource="http://purl.org/dc/dcmitype/StillImage" />
        <dc:title></dc:title>
      </cc:Work>
    </rdf:RDF>
  </metadata>
  <g
     inkscape:label="Layer 1"
     inkscape:groupmode="layer"
     id="layer1"
     transform="translate(-378.58993,147.23103)">
    <g
       id="g2996"
       transform="matrix(0.86602541,-0.50000001,0.50000001,0.86602541,590.57803,300.74916)">
      <path
         style="fill:#cecdd0"
         d="m 176.81326,443.99377 c -10.86216,-4.38099 -19.19196,-12.34756 -22.92984,-21.92997 -3.08422,-7.90665 -3.07709,-19.51416 0.0169,-27.44828 3.11963,-8.00003 10.57899,-15.88007 18.91265,-19.97923 6.18417,-3.04187 7.36674,-3.27325 16.6717,-3.26198 9.26512,0.0112 10.46606,0.24692 16.03163,3.1464 7.39633,3.85325 14.74527,11.53129 18.30368,19.1234 2.28467,4.87446 2.68007,7.04586 2.68007,14.71807 0,7.67219 -0.3954,9.84361 -2.68007,14.71807 -3.55877,7.59285 -10.43467,14.76204 -18.08294,18.85425 -5.52464,2.95594 -7.26494,3.37207 -15.23699,3.64333 -7.03328,0.2393 -10.02417,-0.10684 -13.68674,-1.58405 z m 16.68673,-13.23538 c 13.03954,-3.56182 19.43021,-19.91354 13.09784,-33.51325 -6.82744,-14.66293 -25.48789,-15.81845 -33.96728,-2.10337 -2.23457,3.61433 -3.00893,6.27644 -3.39491,11.67103 -0.43982,6.14699 -0.17559,7.65183 2.1939,12.4949 2.83132,5.787 6.44092,9.02547 12.45552,11.17485 4.49383,1.60592 4.7217,1.61246 9.61493,0.27584 z m 130.5791,13.51876 c -10.18029,-3.69744 -17.77108,-10.59417 -22.46944,-20.41498 -2.76772,-5.78525 -3.10966,-7.48965 -3.10966,-15.5 0,-8.04259 0.33889,-9.71538 3.18565,-15.72477 3.82412,-8.07254 10.23585,-14.61203 18.09758,-18.45825 5.09296,-2.49164 6.80795,-2.79793 15.71677,-2.8069 8.72743,-0.009 10.71519,0.32526 15.62001,2.62509 10.96383,5.14083 18.6408,14.52189 21.55805,26.34341 4.02161,16.29668 -4.58869,33.92141 -20.36641,41.68876 -5.57114,2.74266 -7.85615,3.27549 -15.18482,3.54089 -6.08791,0.22046 -9.92793,-0.16015 -13.04773,-1.29325 z m 16.2756,-13.49647 c 5.4422,-1.51114 12.15214,-8.02294 14.07152,-13.656 6.01557,-17.65471 -6.52452,-34.55844 -23.02634,-31.03894 -15.59873,3.32688 -20.96277,27.24184 -8.83462,39.38817 2.43209,2.43573 5.70123,4.53358 8.02016,5.14665 5.24381,1.38632 5.34716,1.38801 9.76928,0.16012 z m -230.3547,-15.41851 0,-28.5 -10.999998,0 -11,0 0,-6.5 0,-6.5 29.999998,0 30,0 0,6.5 0,6.5 -10.5,0 -10.5,0 0,28.5 0,28.5 -8.5,0 -8.5,0 0,-28.5 z m 144,15.52754 0,-12.97245 -11.64349,-18.27755 c -6.40391,-10.05265 -12.70956,-19.96504 -14.01254,-22.02754 l -2.36906,-3.75 9.9126,0 9.9126,0 7.84994,13.97814 c 4.31747,7.68798 8.08408,13.98798 8.37023,14 0.28616,0.012 4.27913,-6.27814 8.87328,-13.97814 l 8.35299,-14 9.43574,0 c 5.18966,0 9.22696,0.3375 8.97177,0.75 -0.25518,0.4125 -6.58174,10.37458 -14.05902,22.13795 l -13.59504,21.38794 0,12.86206 0,12.86205 -8,0 -8,0 0,-12.97246 z m 145.97737,12.22246 c -0.0125,-0.4125 -0.12495,-13.125 -0.25,-28.25 l -0.22737,-27.5 -11.25,-0.28275 -11.25,-0.28275 0,-6.46724 0,-6.46725 30.5,0 30.5,0 0,6.5 0,6.5 -11,0 -11,0 0,28.5 0,28.5 -8,0 c -4.4,0 -8.01018,-0.3375 -8.02263,-0.75 z m 31.80485,-1.08871 c 0.39478,-1.0113 7.01778,-16.76452 14.71778,-35.00717 l 14,-33.16845 10.486,0.25717 10.486,0.25716 11.25429,27.5 c 9.72999,23.77532 16.27371,40.53119 16.27371,41.67046 0,0.18125 -4.2467,0.32954 -9.43711,0.32954 l -9.4371,0 -2.78911,-7.5 -2.78911,-7.5 -14.13984,0 -14.13983,0 -2.73541,7.5 -2.7354,7.5 -9.86632,0 c -9.17142,0 -9.81577,-0.1295 -9.14855,-1.83871 z m 47.7284,-27.91129 c -0.38684,-0.9625 -2.23935,-5.73752 -4.11667,-10.61117 -1.87733,-4.87364 -3.69435,-9.31587 -4.03783,-9.87163 -0.4537,-0.7341 -9.35612,20.17869 -9.35612,21.97859 0,0.13982 4.09814,0.25421 9.10699,0.25421 8.2746,0 9.0427,-0.15995 8.40363,-1.75 z M 272.99999,343.14952 c -2.475,-0.19978 -10.08129,-1.25576 -16.90287,-2.34661 -61.01704,-9.75737 -107.79289,-38.52689 -127.5354,-78.44074 -7.62804,-15.42177 -9.96774,-25.39767 -9.96774,-42.5 0,-16.18115 2.26209,-26.53414 8.87588,-40.6226 7.76449,-16.53963 18.50534,-29.83244 34.37399,-42.54103 25.0983,-20.10027 65.21641,-34.69056 106.57982,-38.761318 22.89446,-2.253145 57.19749,-1.163059 79.07632,2.512898 67.84177,11.39838 116.95492,47.92126 128.96475,95.90432 11.79129,47.10994 -12.10471,92.66004 -63.62389,121.27865 -22.14862,12.30343 -56.00698,22.17625 -86.26454,25.15403 -10.06909,0.99095 -43.02764,1.21388 -53.57632,0.3624 z m 51.14405,-15.33171 c 32.75106,-3.3028 64.76039,-14.14148 88.40707,-29.93547 11.16098,-7.45459 27.73381,-24.47287 33.79398,-34.7023 9.44583,-15.94435 13.69342,-34.58801 11.62978,-51.04581 -1.09224,-8.71077 -4.03182,-18.70536 -7.13885,-24.27206 -1.07442,-1.925 -1.63648,-2.59999 -1.24902,-1.5 5.31655,15.09342 5.79235,17.8266 5.83182,33.5 0.0377,14.96969 -0.073,15.82292 -3.23399,24.93848 -4.94149,14.24993 -11.09209,23.90194 -22.68484,35.59886 -22.48073,22.68273 -55.18994,37.82643 -95,43.98304 -14.33977,2.21764 -42.51598,2.98109 -57.5,1.55799 -34.20992,-3.24907 -66.21023,-13.79872 -90.32043,-29.77623 -8.90457,-5.90094 -23.48625,-19.79404 -29.27324,-27.89089 -17.0258,-23.82161 -20.39507,-53.92318 -9.11236,-81.41125 4.02743,-9.81203 13.35691,-25.68246 14.4531,-24.58626 0.24992,0.24992 0.57792,2.41695 0.72891,4.81563 0.39618,6.29427 3.49437,11.57813 10.79106,18.40383 14.50542,13.56911 38.90395,22.3496 80.33422,28.9105 l 3.10125,0.49112 0.60074,15.73259 c 0.59934,15.69586 2.32373,28.85553 5.37045,40.98458 0.88526,3.52424 1.88333,5.99253 2.21793,5.48507 0.3346,-0.50745 3.88956,-1.35898 7.89991,-1.89228 l 7.29153,-0.96965 3.38447,5.56244 c 4.4762,7.35673 8.44909,11.01236 12.72157,11.70569 8.57579,1.39166 15.61339,-7.26267 22.2383,-27.34705 1.90877,-5.78669 3.27994,-8.38594 4.65384,-8.822 1.07129,-0.34001 1.72064,-0.98574 1.44301,-1.43495 -0.27762,-0.44921 1.06584,-2.0147 2.98548,-3.47888 1.91964,-1.4642 3.49026,-3.34082 3.49026,-4.17028 0,-0.82948 0.46164,-1.22282 1.02587,-0.8741 0.56423,0.3487 1.51786,-0.77729 2.11918,-2.50225 0.63067,-1.80914 1.61684,-2.93536 2.33053,-2.6615 1.21161,0.46495 2.52442,-10.91189 2.52442,-21.87666 l 0,-4.21717 7.25,-0.84059 c 5.67778,-0.6583 6.43678,-0.91627 3.5,-1.18957 -3.39289,-0.31576 -5.52195,-2.22826 -2.48057,-2.22826 0.94674,0 1.17316,-1.90653 0.8907,-7.5 -0.28342,-5.61262 -0.0576,-7.5 0.89724,-7.5 0.70178,0 0.95374,-0.32222 0.55992,-0.71604 -0.39382,-0.39383 0.99368,-1.27615 3.08333,-1.96073 3.14509,-1.03034 3.28275,-1.17259 0.79938,-0.82604 -1.65,0.23026 -5.97485,0.7083 -9.61078,1.06232 l -6.61078,0.64367 -0.70358,-7.14024 c -1.36685,-13.87136 -8.28263,-37.862 -14.22967,-49.36231 -1.35496,-2.62019 -1.70392,-2.811 -2.5092,-1.37204 -1.30283,2.32802 -2.78651,2.09301 -5.95583,-0.9434 -1.66746,-1.59753 -2.49656,-3.22125 -2.13111,-4.17361 0.44048,-1.14787 0.15698,-1.38949 -1.07544,-0.91657 -0.92049,0.35322 -1.67361,0.22047 -1.67361,-0.29501 0,-0.51547 -0.6801,-0.67625 -1.51134,-0.35727 -1.13313,0.43482 -1.3435,0.11415 -0.84067,-1.28138 0.36887,-1.02374 0.29485,-1.51973 -0.16447,-1.1022 -0.45933,0.41753 -1.88103,-0.22341 -3.15933,-1.42431 -1.27831,-1.20091 -2.32419,-1.65502 -2.32419,-1.00915 0,0.64587 -0.48032,1.17431 -1.06739,1.17431 -0.63328,0 -0.79306,-0.86433 -0.39286,-2.12522 0.43896,-1.38305 0.30394,-1.8962 -0.38663,-1.46941 -1.70689,1.05492 -6.15312,-0.48441 -6.15312,-2.13027 0,-1.23139 1.18874,-1.43239 6.47903,-1.09553 3.56347,0.2269 5.92597,0.0612 5.25,-0.36819 -0.67597,-0.42941 -3.72843,-0.78764 -6.78325,-0.79606 -10.32832,-0.0285 -17.75788,6.68946 -25.97238,23.48468 -5.57815,11.40499 -10.21662,26.9906 -12.40443,41.67981 -0.8263,5.5478 -1.67593,10.26048 -1.88808,10.47264 -0.57852,0.57851 -20.15859,-2.30035 -30.89698,-4.54279 -22.94665,-4.79184 -40.6569,-14.0002 -45.1543,-23.47777 -2.23045,-4.70033 -2.06524,-11.85766 0.38457,-16.65968 7.36601,-14.43857 44.25257,-28.43485 88.48582,-33.57517 16.74739,-1.94621 48.41164,-1.44557 63.81224,1.00892 34.89692,5.56173 61.29952,14.90285 73.41176,25.97276 6.06021,5.53869 8.276,9.58722 8.276,15.12128 0,7.19463 -4.67582,13.79221 -13.94578,19.67749 -2.44518,1.55238 -3.94849,2.82251 -3.3407,2.82251 2.09967,0 13.67307,-8.51233 16.64177,-12.24016 6.93935,-8.71379 3.50284,-20.45146 -8.59519,-29.35753 -21.98739,-16.18619 -65.36983,-26.765 -109.7601,-26.765 -39.43249,0 -74.13572,7.37894 -102.15164,21.72048 -14.41278,7.378 -22.99957,13.20767 -31.38741,21.30926 -11.06889,10.69114 -18.3323,22.44664 -20.50953,33.19371 -0.62835,3.10158 -1.99946,9.51994 -3.04693,14.26303 -3.38733,15.33831 -2.20114,33.39967 3.1357,47.74518 15.68482,42.16102 68.60636,73.9026 132.45981,79.44747 9.42268,0.81826 38.10649,0.60104 47.64405,-0.3608 z m -32.85995,-42.70564 c -9.54603,-8.96752 -17.52435,-35.35641 -18.48872,-61.15278 l -0.27674,-7.40278 26.24073,-0.0972 26.24073,-0.0972 -5e-5,6.02623 c -1.9e-4,23.02868 -9.19743,54.2022 -18.35812,62.22377 -2.04134,1.7875 -4.14586,3.25 -4.67673,3.25 -1.68774,0 -1.05468,-6.20715 0.7848,-7.69492 1.56652,-1.26701 1.50433,-1.29587 -0.59314,-0.27522 -1.28873,0.62711 -3.53873,0.8948 -5,0.59487 -1.46127,-0.29994 -2.09436,-0.30072 -1.40686,-0.002 0.6875,0.299 1.25,2.08115 1.25,3.96031 0,4.23048 -1.70989,4.42991 -5.7159,0.66667 z m 12.22569,-10 c 3.119,-3.08255 6.40486,-9.92121 8.87704,-18.47521 1.74798,-6.04823 4.59732,-23.37994 4.60727,-28.02479 l 0.006,-2.75 -18,0 -18,0 0.004,4.25 c 0.005,5.60842 2.52023,20.84652 4.57991,27.75 2.2734,7.61984 6.93249,16.54788 9.61656,18.42788 3.19358,2.23686 5.13224,1.96205 8.3093,-1.17788 z m -21.00979,-81.12013 c -4.95,-0.34643 -8.95835,-0.85487 -8.90745,-1.12987 0.0509,-0.275 0.40334,-3.24703 0.7832,-6.60452 2.17391,-19.21485 11.0189,-39.96259 18.73824,-43.95442 10.88533,-5.62903 20.80102,5.0915 27.33981,29.55894 1.39636,5.225 2.82763,12.3125 3.18061,15.75 l 0.64178,6.25 -5.3881,0.005 c -2.96345,0.003 -10.33809,0.17344 -16.38809,0.37987 -6.05,0.20643 -15.05,0.0919 -20,-0.25455 z m 32.02805,-12.87987 c -1.05816,-7.19035 -5.32043,-19.26017 -8.38365,-23.74067 -5.41268,-7.91703 -10.95133,-6.80354 -16.45181,3.30745 -2.77603,5.1029 -7.92413,22.98352 -7.0347,24.43322 0.25308,0.4125 7.68468,0.75 16.51467,0.75 l 16.05453,0 -0.69904,-4.75 z m -43.50783,131.5 c -3.54652,-5.2965 -8.87441,-17.12321 -11.93545,-26.49399 -4.70887,-14.41532 -7.331,-29.7405 -9.63231,-56.29663 l -0.5668,-6.54062 -13.79634,-2.65605 c -31.41666,-6.04827 -55.26797,-16.57415 -68.67612,-30.30761 l -5.22348,-5.35021 -2.07923,5.19756 c -4.19773,10.49326 -5.56553,17.79968 -5.55958,29.69755 0.006,12.44498 2.01811,21.2588 7.18458,31.47478 12.47482,24.66722 39.09481,45.0964 73.63229,56.50815 10.56998,3.4925 29.98864,7.84452 35.48042,7.95171 l 3.3482,0.0654 -2.17618,-3.25 z m 69.62429,1.17623 c 44.65518,-8.61756 81.02208,-32.28605 96.22715,-62.62704 9.24985,-18.45765 9.91631,-39.60579 1.90551,-60.46546 l -2.17604,-5.66627 -7.62348,7.16627 c -13.64353,12.82528 -34.88496,22.00441 -64.97765,28.07902 l -15.5,3.12887 -0.65331,10.51191 c -1.95184,31.40593 -10.50471,63.25281 -20.97494,78.10084 -1.02946,1.4599 -1.87175,2.92241 -1.87175,3.25 0,1.07491 4.7315,0.62786 15.64451,-1.47814 z m 18.60549,-102.58851 c -0.6875,-0.27741 -1.8125,-0.27741 -2.5,0 -0.6875,0.27741 -0.125,0.50439 1.25,0.50439 1.375,0 1.9375,-0.22698 1.25,-0.50439 z M 253.37855,173.64794 c 3.2624,-17.01843 10.10617,-35.03377 17.67827,-46.53577 l 2.13957,-3.25 -2.53163,0 c -5.91374,0 -30.53814,5.30609 -41.82615,9.01274 -23.86935,7.838 -37.55222,18.02359 -35.45219,26.39078 2.21684,8.83261 20.20279,17.41369 46.11357,22.00075 12.97696,2.29735 11.8602,2.91038 13.87856,-7.6185 z m 108.14332,6.79216 c 35.31367,-6.97733 49.81398,-18.14542 39.22812,-30.21335 -8.9712,-10.2272 -31.47861,-19.27562 -60.62953,-24.37424 -16.3346,-2.857 -15.67959,-3.11507 -11.12442,4.38288 4.7353,7.79447 8.00146,15.45585 11.3514,26.62678 1.98403,6.61609 5.65255,23.23736 5.65255,25.61047 0,0.7839 3.75784,0.29182 15.52188,-2.03254 z m -41.08626,-47.47376 c 0.30451,-0.49271 -0.37064,-1.95521 -1.50033,-3.25 l -2.05399,-2.35417 1.78201,2.9143 1.78201,2.91429 -2.72266,-0.68335 c -1.62942,-0.40895 -2.72266,-0.27416 -2.72266,0.33571 0,1.25519 4.67059,1.36107 5.43562,0.12322 z"
         id="path3010"
         inkscape:connector-curvature="0" />
      <path
         style="fill:#afadb1"
         d="m 180.38267,444.97702 c -9.94801,-2.57843 -19.43217,-9.97812 -24.16145,-18.85116 -10.28496,-19.29655 -2.27777,-42.76124 17.77877,-52.09983 4.6504,-2.16528 6.97074,-2.56882 15.02103,-2.61236 8.79235,-0.0476 10.03103,0.19957 16.18482,3.22907 11.10024,5.46463 18.70115,15.68945 21.04923,28.31561 2.78956,15.00009 -7.00756,32.78081 -21.79143,39.54909 -6.01213,2.75245 -18.17655,3.99995 -24.08097,2.46958 z m 16.64105,-15.36485 c 14.36216,-7.26583 16.86969,-28.73429 4.61312,-39.4957 -9.25575,-8.12666 -21.458,-6.27616 -28.95526,4.39114 -5.52101,7.85543 -4.75546,22.16973 1.59788,29.87743 5.94566,7.21312 14.79742,9.24745 22.74426,5.22713 z m 128.90562,14.88263 c -10.65736,-2.87353 -21.04643,-12.17793 -25.04593,-22.431 -3.08421,-7.90665 -3.07708,-19.51416 0.0169,-27.44828 3.04647,-7.81239 10.59643,-15.88795 18.48439,-19.77117 24.70255,-12.16103 53.86721,5.98611 53.86721,33.51783 0,24.43131 -23.67556,42.50854 -47.32252,36.13263 z m 20.3476,-16.25966 c 16.17786,-11.37023 10.96518,-40.11467 -7.78451,-42.92636 -12.05443,-1.80768 -22.9659,9.15785 -22.8953,23.00876 0.0929,18.23423 17.23793,29.36491 30.67981,19.9176 z m -236.27695,-12.87297 0,-28.5 -10.999998,0 -11,0 0,-6.5 0,-6.5 29.999998,0 30,0 0,6.5 0,6.5 -11,0 -11,0 0,28.5 0,28.5 -8,0 -8,0 0,-28.5 z m 144,15.32565 0,-13.17435 -13.5,-21.20561 c -7.425,-11.66309 -13.5,-21.48463 -13.5,-21.82565 0,-0.34102 4.1625,-0.61671 9.25,-0.61264 l 9.25,0.007 7.95009,13.9926 c 4.37254,7.69593 8.25007,13.9926 8.61673,13.9926 0.36666,0 4.43912,-6.28469 9.04992,-13.96598 l 8.38326,-13.96599 8.75,-0.034 c 4.8125,-0.0187 8.75,0.26944 8.75,0.64033 0,0.37089 -6.075,10.21688 -13.5,21.87996 l -13.5,21.20562 0,13.12003 0,13.12004 -8,0 -8,0 0,-13.17435 z m 146,-15.32565 0,-28.5 -11.5,0 -11.5,0 0,-6.5 0,-6.5 30.5,0 30.5,0 0,6.5 0,6.5 -11,0 -11,0 0,28.5 0,28.5 -8,0 -8,0 0,-28.5 z m 32,27.62827 c 0,-0.47946 6.45905,-16.11696 14.35343,-34.75 l 14.35344,-33.87827 10.22548,0 10.22547,0 11.50778,28 c 6.32928,15.4 12.54907,31.0375 13.82177,34.75 l 2.31398,6.75 -9.23514,0 -9.23513,0 -2.92456,-7.75 -2.92456,-7.75 -13.99098,0 -13.99098,0 -3,7.74652 -3,7.74652 -9.25,0.003 c -5.0875,0.002 -9.25,-0.3888 -9.25,-0.86825 z m 47.76088,-28.37827 c -3.9642,-10.93644 -8.35982,-21.75 -8.84118,-21.75 -0.57606,0 -8.9197,20.89196 -8.9197,22.33437 0,0.3661 4.09814,0.66563 9.10699,0.66563 6.86057,0 8.99522,-0.30834 8.65389,-1.25 z M 276.49999,343.24492 c -33.67536,-3.45653 -58.38057,-9.94633 -83.09652,-21.82858 -26.16543,-12.57909 -45.68157,-28.66558 -58.90047,-48.54964 -22.75583,-34.22966 -20.98344,-79.02895 4.46264,-112.79844 23.89285,-31.70821 64.5665,-52.33677 120.03435,-60.878133 16.42295,-2.528932 62.45863,-2.527211 79.5,0.003 73.94898,10.979423 123.73041,45.820253 137.71769,96.385293 1.78829,6.46481 2.16194,10.57971 2.20505,24.28378 0.0449,14.28114 -0.2539,17.56169 -2.22215,24.39503 -14.45568,50.18713 -66.02311,86.1411 -139.39704,97.19073 -9.87941,1.48777 -51.29299,2.72186 -60.30355,1.79699 z m 51.5,-15.46613 c 23.93833,-2.80766 48.58124,-10.05715 68.21764,-20.06839 41.53133,-21.17393 64.45586,-54.68638 62.48771,-91.34823 -0.63542,-11.83645 -3.12029,-20.52503 -9.31495,-32.57062 -6.28443,-12.22017 -8.24148,-14.19503 -2.90296,-2.92938 21.98427,46.39243 3.76738,94.4128 -45.84255,120.84262 l -5.85512,3.11933 -1.78332,-2.20231 c -1.64655,-2.03341 -1.65766,-2.30364 -0.14489,-3.52359 0.90114,-0.72671 -0.83656,-0.12297 -3.86156,1.34163 -6.55523,3.17383 -7.39353,3.81018 -3.84663,2.91996 1.60887,-0.4038 3.74388,-0.0914 5.43658,0.7955 l 2.7873,1.46041 -3.16162,1.63495 c -13.54974,7.00683 -38.27137,14.24979 -58.76562,17.21718 -14.43556,2.09014 -47.33306,2.37972 -61.45001,0.54091 -23.95108,-3.11976 -43.22008,-8.69593 -62.94467,-18.21527 -33.75672,-16.29142 -53.35304,-36.75867 -62.21559,-64.98065 -2.00493,-6.38451 -2.33871,-9.52556 -2.33258,-21.95067 0.006,-12.0491 0.38753,-15.81647 2.2575,-22.2885 2.95349,-10.2221 6.94657,-18.89165 12.84476,-27.88776 l 4.80171,-7.32374 0.65947,5.03867 c 0.87514,6.68646 3.12509,10.78848 9.30242,16.95978 12.70971,12.69728 37.17338,22.72421 68.45645,28.05825 7.88121,1.34381 14.74371,2.4433 15.25,2.4433 0.50629,0 0.92053,3.10232 0.92053,6.89405 0,17.67323 4.26031,44.85424 9.55409,60.95565 3.27872,9.97245 7.30958,18.99647 7.40399,16.57558 0.025,-0.6403 5.19575,-1.57428 12.79192,-2.31057 16.03809,-1.55454 32.78123,-3.8328 36.94518,-5.02716 2.22768,-0.63898 3.30977,-0.5727 3.57363,0.21888 0.57945,1.73836 6.48592,-17.61416 8.63924,-28.30643 2.24134,-11.12934 3.7307,-23.29539 4.6801,-38.23004 l 0.68211,-10.73004 3.11487,-0.5223 c 1.71318,-0.28727 6.26487,-0.9896 10.11487,-1.56074 33.96969,-5.03934 65.10086,-19.24919 75.25,-34.34792 1.7875,-2.65924 3.23114,-5.34663 3.20808,-5.97197 -0.0231,-0.62534 -0.81055,0.24111 -1.75,1.92545 -2.39837,4.30007 -4.45964,6.9216 -6.20808,7.89548 -1.17597,0.65501 -1.24685,0.56146 -0.32814,-0.43307 0.64452,-0.6977 0.90554,-1.96254 0.58006,-2.81075 -0.38819,-1.01159 -0.18979,-1.29373 0.57664,-0.82005 0.74073,0.4578 1.11099,0.0603 1.0115,-1.08595 -0.334,-3.84787 0.16124,-5.24483 1.65604,-4.67122 3.04832,1.16975 -0.18099,-10.05656 -4.50383,-15.65704 -1.49442,-1.93609 -3.71415,-5.47452 -4.93275,-7.86317 -4.43868,-8.70054 -14.11019,-15.91542 -31.22616,-23.29452 -7.38583,-3.1842 -27.24101,-9.39304 -35.83336,-11.20531 -0.825,-0.174 -2.175,-0.58379 -3,-0.91063 -2.82026,-1.1173 -17.48996,-3.63581 -27.21059,-4.67154 -14.4953,-1.54448 -47.37232,-1.27809 -61.81927,0.5009 -58.73183,7.23218 -102.25334,32.46956 -119.90122,69.52868 -5.33495,11.20296 -7.10095,18.27462 -7.7827,31.16459 -1.44493,27.31982 6.35778,45.26 30.04345,69.07659 16.99658,17.09053 31.95442,26.83209 55.29551,36.0122 31.3124,12.31522 72.60603,17.02877 110.37482,12.59899 z m -34.58885,-49.68886 c -2.99166,-2.47452 -6.38008,-7.66977 -8.5203,-13.06363 l -1.85066,-4.66413 0.54288,4.5 c 0.29858,2.475 0.7209,5.625 0.93848,7 0.21759,1.375 -0.74075,0.049 -2.12964,-2.9466 -4.52177,-9.75282 -9.39183,-35.03873 -9.39194,-48.76399 l -3e-5,-3.78941 25.63207,0.21537 c 14.09763,0.11845 25.82539,0.40869 26.06168,0.64498 0.23628,0.23629 -0.0644,5.79934 -0.66818,12.36233 -1.30112,14.14287 -4.86418,30.62075 -8.27683,38.27732 l -2.45144,5.5 0.26404,-4 c 0.14522,-2.2 0.54653,-5.34999 0.8918,-7 0.3945,-1.88525 -0.0856,-1.25851 -1.292,1.68673 -5.62768,13.73892 -13.41867,19.27787 -19.74993,14.04104 z m 10.21134,-2.75934 c 5.68213,-5.68214 11.79472,-25.09912 13.05785,-41.47901 l 0.61609,-7.98941 -18.68266,0 -18.68266,0 0.60936,5.25 c 2.6443,22.78239 8.04145,39.91618 14.06649,44.65548 3.50964,2.76069 5.93539,2.64308 9.01553,-0.43705 z m -29.10872,-87.71842 c 1.1462,-10.0878 5.19841,-24.70529 8.98227,-32.40172 3.06654,-6.23737 9.09437,-13.34828 11.31518,-13.34828 0.4079,0 0.57973,1.69773 0.38184,3.77273 l -0.35978,3.77273 4.16672,0 4.16672,0 -0.35978,-3.77273 c -0.19789,-2.075 -0.19237,-3.77273 0.0123,-3.77273 0.20463,0 1.62885,0.89492 3.16493,1.98871 4.22312,3.00712 8.56052,10.50258 11.86927,20.51129 3.08093,9.31956 6.53809,27.05754 5.57673,28.61305 -0.30149,0.48782 -11.59079,0.88695 -25.08733,0.88695 l -24.53917,0 0.71014,-6.25 z m 40.48623,-3.93611 c 0,-3.47633 -3.06886,-14.8567 -5.4779,-20.31389 -5.3822,-12.19228 -10.78375,-14.51707 -16.96129,-7.30001 -3.50568,4.0956 -8.30483,16.61757 -9.9839,26.05001 l -0.66754,3.75 16.54532,0 c 16.34816,0 16.54531,-0.026 16.54531,-2.18611 z m -74.5,6.08293 c -27.88901,-4.89942 -45.18845,-11.49567 -53.33916,-20.33815 -2.28846,-2.48269 -4.16084,-4.90269 -4.16084,-5.37779 0,-0.47509 1.99868,-0.56048 4.44152,-0.18975 l 4.44152,0.67405 -0.58516,-3.08259 c -0.32184,-1.69542 -0.7044,-3.22896 -0.85013,-3.40786 -0.14573,-0.1789 0.1125,-1.6414 0.57384,-3.25 l 0.8388,-2.92473 -4.9302,0 c -6.4657,0 -6.43586,-1.52769 0.16621,-8.5084 11.7481,-12.42189 42.17679,-23.19618 80.9036,-28.64663 14.08098,-1.98177 50.58047,-1.70164 65,0.49887 35.16608,5.36657 63.07373,14.92704 75.49882,25.86404 3.90989,3.44163 7.50118,8.34534 7.50118,10.24246 0,0.30232 -2.19472,0.54966 -4.87716,0.54966 l -4.87717,0 0.49072,4.35358 c 0.26989,2.39447 0.019,5.23502 -0.5576,6.31235 -0.99207,1.8537 -0.78744,1.92531 3.81466,1.33491 l 4.86297,-0.62386 -1.40735,2.72152 c -2.1819,4.21933 -8.11408,8.6309 -17.94907,13.34815 -10.67472,5.12002 -16.09454,6.63098 -35.90769,10.01053 -20.23544,3.45158 -20.35467,3.44476 -21.11291,-1.20718 -4.04606,-24.82346 -7.70274,-37.77188 -14.46521,-51.22177 -4.37531,-8.70206 -10.53562,-16.21227 -15.33329,-18.69324 -3.91504,-2.02454 -15.49657,-1.99878 -19.44543,0.0433 -12.04584,6.22914 -24.98506,35.10631 -29.29163,65.37176 l -1.17392,8.25 -3.63496,-0.0854 c -1.99923,-0.0469 -8.58496,-0.95494 -14.63496,-2.01778 z m 12.42606,-13.14682 c 3.43484,-18.09686 10.38532,-37.49444 16.88653,-47.12742 1.75308,-2.59756 3.18741,-4.98742 3.18741,-5.3108 0,-0.97174 -11.75433,0.55136 -24.14905,3.12917 -32.49685,6.75859 -55.83201,19.63062 -55.84721,30.80617 -0.009,6.31675 11.0604,14.01454 26.94866,18.74112 8.77884,2.61161 24.23667,5.80777 28.66749,5.92747 3.04856,0.0824 3.14702,-0.0586 4.30617,-6.16571 z m 104.84895,4.79097 c 18.73488,-3.29711 35.0658,-9.10633 41.90824,-14.90756 12.58964,-10.67389 -0.1823,-24.09887 -32.80364,-34.48093 -10.53239,-3.35203 -25.75501,-6.64454 -35.82348,-7.74828 l -6.44387,-0.7064 2.23457,3.4011 c 7.12197,10.83987 13.63234,27.68607 16.57953,42.9011 0.90555,4.675 1.86365,9.5125 2.12911,10.75 0.57056,2.6599 1.3231,2.70861 12.21954,0.79097 z M 267.18327,304.7921 c -9.40192,-18.55942 -15.56745,-43.83842 -16.88183,-69.2164 -0.33575,-6.48256 -0.96264,-12.00414 -1.3931,-12.27017 -0.43046,-0.26604 -5.64844,-1.36236 -11.5955,-2.43626 -21.34037,-3.85357 -42.317,-11.02612 -56.05413,-19.16661 -3.10041,-1.83727 -8.91917,-6.42779 -12.93059,-10.20116 l -7.29348,-6.86067 -1.12281,2.86067 c -7.2901,18.57348 -8.8163,36.5359 -4.36392,51.36067 9.06203,30.17316 38.20385,55.85097 78.27556,68.97116 12.22048,4.00121 36.70824,9.33804 38.91327,8.48072 0.13021,-0.0506 -2.36885,-5.23551 -5.55347,-11.52196 z m 85.24043,6.46267 c 59.05061,-14.96855 97.35606,-56.51819 91.78593,-99.55948 -1.00648,-7.77727 -5.098,-22.62809 -7.07511,-25.68026 -0.66081,-1.02012 -2.03856,-0.10069 -5.6755,3.78749 -12.75104,13.63189 -37.41244,24.56224 -69.11893,30.63469 l -14.06263,2.69329 -0.67928,11.3619 c -1.22962,20.56715 -6.15388,44.79922 -12.23623,60.21393 -2.88187,7.30362 -8.98242,18.80324 -10.45936,19.71604 -0.51437,0.3179 -0.71377,0.93632 -0.4431,1.37428 0.64677,1.04648 15.31966,-1.33666 27.96421,-4.54189 z m -144.47304,-7.83315 c 0.65756,-0.79231 1.95016,-1.19986 2.87244,-0.90567 1.44649,0.4614 1.47079,0.37922 0.17689,-0.59812 -0.825,-0.62315 -3.3,-2.04106 -5.5,-3.15088 l -4,-2.01788 2.5,2.06906 c 2.33016,1.92849 2.38217,2.15985 0.76554,3.40543 -0.95395,0.73501 -1.44145,1.62938 -1.08333,1.9875 1.08734,1.08734 3.00526,0.73263 4.26846,-0.78944 z m -79.82859,-50.23445 c -1.17885,-2.02721 -1.46352,-1.37835 -0.49854,1.13634 0.34295,0.8937 0.8342,1.41426 1.09166,1.15679 0.25747,-0.25747 -0.009,-1.28938 -0.59312,-2.29313 z m -2.69351,-8.75357 c -0.36782,-1.46551 -0.86162,-2.47171 -1.09733,-2.236 -0.23572,0.23572 -0.12763,1.62764 0.24019,3.09315 0.36782,1.4655 0.86162,2.4717 1.09734,2.23599 0.23571,-0.23572 0.12762,-1.62763 -0.2402,-3.09314 z m 348.40146,-3.07143 c -0.0236,-1.60778 -0.1864,-1.50973 -0.83003,0.5 -1.09501,3.41917 -1.09501,6.04822 0,3.5 0.47269,-1.09999 0.8462,-2.9 0.83003,-4 z m -350.16775,-3.75 c -0.27741,-0.6875 -0.50438,-0.125 -0.50438,1.25 0,1.375 0.22697,1.9375 0.50438,1.25 0.27741,-0.6875 0.27741,-1.8125 0,-2.5 z m 352.46963,-18.25 c 0.0311,-10.78834 -0.39772,-14.67947 -2.52052,-22.8718 -9.83708,-37.96336 -42.75897,-68.49979 -91.11139,-84.50962 -12.3966,-4.10461 -33.43824,-9.16815 -37.62041,-9.05313 -1.30877,0.036 2.84095,1.14862 9.2216,2.4725 62.38981,12.94484 104.13621,44.21037 117.53109,88.02369 2.53573,8.29413 2.73756,10.25678 2.80021,27.23063 0.0418,11.32213 0.37128,17.03777 0.86473,15 0.43847,-1.81075 0.81408,-9.14226 0.83469,-16.29227 z m -353.61015,8.74578 c -0.75837,-8.56719 0.60984,-23.5572 2.97555,-32.59994 4.36998,-16.70389 13.27394,-31.53133 27.4454,-45.70382 24.33581,-24.33758 58.95931,-39.62594 107.05729,-47.27222 2.42815,-0.38601 2.42115,-0.40135 -0.24346,-0.53361 -5.21495,-0.25887 -28.89041,4.96849 -42.82477,9.45536 -32.46396,10.45343 -60.5981,29.02862 -76.36981,50.42215 -10.54629,14.30551 -17.70863,33.3153 -19.17443,50.89148 -0.62946,7.54776 0.24694,23.09482 1.30187,23.09482 0.28532,0 0.20988,-3.4894 -0.16764,-7.75422 z m 311.08241,-59.97494 c -0.33229,-0.33229 -0.56864,0.25833 -0.52522,1.3125 0.048,1.16494 0.28494,1.4019 0.60416,0.60416 0.28887,-0.72187 0.25335,-1.58437 -0.0789,-1.91666 z m -95.60417,-66.32188 c -2.475,-0.44039 -6.3,-0.76337 -8.5,-0.71773 -3.83979,0.0797 -3.79973,0.11045 1,0.76877 2.75,0.37719 6.575,0.70017 8.5,0.71773 3.11439,0.0284 3.00422,-0.0563 -1,-0.76877 z m -50.08333,-1.58612 c 0.74674,-0.650266 -14.27212,-0.18558 -19.91667,0.61623 -3.48473,0.495 -0.91985,0.59171 7,0.26394 6.875,-0.28454 12.6875,-0.68061 12.91667,-0.88017 z m 33.33333,-0.095 c -2.3375,-0.210535 -6.1625,-0.210535 -8.5,0 -2.3375,0.21053 -0.425,0.38279 4.25,0.38279 4.675,0 6.5875,-0.17226 4.25,-0.38279 z m -17.5,-1.002834 c -2.6125,-0.205999 -6.8875,-0.205999 -9.5,0 -2.6125,0.205998 -0.475,0.374542 4.75,0.374542 5.225,0 7.3625,-0.168544 4.75,-0.374542 z"
         id="path3008"
         inkscape:connector-curvature="0" />
      <path
         style="fill:#8f8d90"
         d="m 180.74592,444.83927 c -10.77542,-2.71975 -20.42016,-10.53845 -25.32672,-20.53157 -2.63463,-5.36593 -2.91921,-6.92038 -2.91921,-15.94553 0,-8.74771 0.33439,-10.71337 2.67018,-15.6965 3.54536,-7.56357 10.40584,-14.23589 18.62911,-18.11818 5.88333,-2.77757 7.74391,-3.1648 15.25257,-3.17439 7.88883,-0.0101 9.14452,0.28198 16.19599,3.767 11.50384,5.68551 18.29468,14.7639 20.75739,27.74968 2.87134,15.14052 -6.414,32.05714 -21.46061,39.0983 -7.03811,3.29353 -17.21547,4.51282 -23.79871,2.85119 z m 16.04391,-14.88552 c 8.36295,-4.30169 12.59667,-11.56126 12.59204,-21.59158 -0.005,-10.48763 -4.83775,-18.28685 -13.59976,-21.94695 -9.67176,-4.04013 -20.86589,1.23528 -25.35079,11.94695 -2.15635,5.15018 -2.15635,14.84982 0,20 4.62248,11.04026 16.91814,16.44748 26.35851,11.59158 z m 129.24307,14.37111 c -30.99026,-8.68872 -37.25974,-49.99127 -10.22201,-67.34134 18.65958,-11.97382 43.93772,-4.56887 53.94913,15.80379 2.44315,4.97167 2.73563,6.65684 2.70326,15.57486 -0.0445,12.25699 -1.88659,16.94707 -9.99494,25.44783 -9.68107,10.14959 -23.50698,14.13959 -36.43544,10.51486 z m 17.99082,-14.71269 c 12.64912,-6.3992 16.45103,-24.33222 7.63665,-36.0209 -11.03583,-14.63454 -31.10721,-9.72566 -35.75828,8.74543 -2.16524,8.59893 0.60885,17.85334 7.26027,24.22044 6.07191,5.81236 13.3145,6.87299 20.86136,3.05504 z m -234.02373,-14.25 0,-28.5 -10.999998,0 -11,0 0,-6.5 0,-6.5 29.999998,0 30,0 0,6.5 0,6.5 -11,0 -11,0 0,28.5 0,28.5 -8,0 -8,0 0,-28.5 z m 144,15.0537 0,-13.44631 -13.5,-21.07081 c -7.425,-11.58894 -13.5,-21.30499 -13.5,-21.59122 0,-0.28623 4.1625,-0.39103 9.25,-0.23289 l 9.25,0.28753 8,14.22513 c 4.4,7.82382 8.225,14.22186 8.5,14.21786 0.275,-0.004 4.3594,-6.40531 9.07644,-14.22513 l 8.57643,-14.21786 8.67357,-0.28893 c 4.77046,-0.15892 8.67356,-0.0223 8.67356,0.3035 0,0.32584 -6.075,10.09317 -13.5,21.70519 l -13.5,21.11277 0,13.33373 0,13.33374 -8,0 -8,0 0,-13.4463 z m 146,-15.0537 0,-28.5 -11.5,0 -11.5,0 0,-6.5 0,-6.5 30,0 30,0 0,6.5 0,6.5 -10.5,0 -10.5,0 0,28.5 0,28.5 -8,0 -8,0 0,-28.5 z m 32.51715,26.44597 c 0.37203,-1.17215 6.91281,-16.82701 14.53508,-34.78858 l 13.85866,-32.65739 9.92465,-0.28366 c 7.36254,-0.21043 10.05526,0.0477 10.43059,1 0.27826,0.70601 5.57964,13.65866 11.78083,28.78366 6.2012,15.125 12.26803,30.3125 13.48185,33.75 l 2.20696,6.25 -9.13504,0 -9.13504,0 -2.84248,-8 -2.84248,-8 -14.26006,0 -14.26006,0 -2.91427,7.75 -2.91426,7.75 -9.29567,0.28858 c -9.08904,0.28216 -9.28064,0.2412 -8.61926,-1.8426 z m 47.48285,-26.64236 c 0,-1.2937 -8.49565,-23.27989 -9,-23.29142 -0.275,-0.006 -2.58544,5.3884 -5.13431,11.98819 l -4.63431,11.99962 9.38431,0 c 5.16137,0 9.38431,-0.31338 9.38431,-0.69639 z m -206,-72.32253 c -49.50048,-4.63647 -93.25477,-22.24052 -121.07157,-48.71182 -10.83815,-10.31391 -17.4881,-18.95044 -23.30669,-30.26926 -8.57818,-16.68699 -11.09117,-28.25873 -10.36786,-47.74161 0.74491,-20.06461 5.30632,-34.36425 16.1647,-50.67502 23.3315,-35.04705 66.31293,-57.84694 125.04736,-66.332486 7.94852,-1.148347 18.7241,-1.598625 38.53406,-1.610217 31.08234,-0.01819 45.00842,1.551812 69.35558,7.819013 70.80734,18.22653 113.22473,64.28987 110.35871,119.84449 -1.29333,25.0697 -11.54906,46.68786 -31.65381,66.72339 -25.11876,25.03226 -63.14893,42.25477 -108.34726,49.06661 -15.22862,2.2951 -49.64226,3.29854 -64.71322,1.88691 z m 12.26375,-2.68501 c -1.22994,-0.23736 -3.47994,-0.24351 -5,-0.0136 -1.52006,0.22985 -0.51375,0.42406 2.23625,0.43157 2.75,0.007 3.99369,-0.18056 2.76375,-0.41792 z m 30.48625,-0.0123 c -1.5125,-0.22913 -3.9875,-0.22913 -5.5,0 -1.5125,0.22912 -0.275,0.41659 2.75,0.41659 3.025,0 4.2625,-0.18747 2.75,-0.41659 z m -45.01903,-0.97674 c -0.97297,-0.25354 -2.32297,-0.23687 -3,0.0371 -0.67703,0.27393 0.11903,0.48137 1.76903,0.46099 1.65,-0.0204 2.20394,-0.2445 1.23097,-0.49804 z m 57,0 c -0.97297,-0.25354 -2.32297,-0.23687 -3,0.0371 -0.67703,0.27393 0.11903,0.48137 1.76903,0.46099 1.65,-0.0204 2.20394,-0.2445 1.23097,-0.49804 z m -65.48097,-0.96931 c -0.6875,-0.27741 -1.8125,-0.27741 -2.5,0 -0.6875,0.27741 -0.125,0.50439 1.25,0.50439 1.375,0 1.9375,-0.22698 1.25,-0.50439 z m 74,0 c -0.6875,-0.27741 -1.8125,-0.27741 -2.5,0 -0.6875,0.27741 -0.125,0.50439 1.25,0.50439 1.375,0 1.9375,-0.22698 1.25,-0.50439 z m -81,-1 c -0.6875,-0.27741 -1.8125,-0.27741 -2.5,0 -0.6875,0.27741 -0.125,0.50439 1.25,0.50439 1.375,0 1.9375,-0.22698 1.25,-0.50439 z m 86.9375,-0.0208 c -0.72188,-0.28887 -1.58438,-0.25335 -1.91667,0.0789 -0.33229,0.33229 0.25834,0.56864 1.3125,0.52522 1.16495,-0.048 1.4019,-0.28494 0.60417,-0.60416 z m -93,-1 c -0.72188,-0.28887 -1.58438,-0.25335 -1.91667,0.0789 -0.33229,0.33229 0.25834,0.56864 1.3125,0.52522 1.16495,-0.048 1.4019,-0.28494 0.60417,-0.60416 z m 99,0 c -0.72188,-0.28887 -1.58438,-0.25335 -1.91667,0.0789 -0.33229,0.33229 0.25834,0.56864 1.3125,0.52522 1.16495,-0.048 1.4019,-0.28494 0.60417,-0.60416 z m -104,-1 c -0.72188,-0.28887 -1.58438,-0.25335 -1.91667,0.0789 -0.33229,0.33229 0.25834,0.56864 1.3125,0.52522 1.16495,-0.048 1.4019,-0.28494 0.60417,-0.60416 z m 109,0 c -0.72188,-0.28887 -1.58438,-0.25335 -1.91667,0.0789 -0.33229,0.33229 0.25834,0.56864 1.3125,0.52522 1.16495,-0.048 1.4019,-0.28494 0.60417,-0.60416 z m -114,-1 c -0.72188,-0.28887 -1.58438,-0.25335 -1.91667,0.0789 -0.33229,0.33229 0.25834,0.56864 1.3125,0.52522 1.16495,-0.048 1.4019,-0.28494 0.60417,-0.60416 z m 118,0 c -0.72188,-0.28887 -1.58438,-0.25335 -1.91667,0.0789 -0.33229,0.33229 0.25834,0.56864 1.3125,0.52522 1.16495,-0.048 1.4019,-0.28494 0.60417,-0.60416 z m -122,-1 c -0.72188,-0.28887 -1.58438,-0.25335 -1.91667,0.0789 -0.33229,0.33229 0.25834,0.56864 1.3125,0.52522 1.16495,-0.048 1.4019,-0.28494 0.60417,-0.60416 z m -4,-1 c -0.72188,-0.28887 -1.58438,-0.25335 -1.91667,0.0789 -0.33229,0.33229 0.25834,0.56864 1.3125,0.52522 1.16495,-0.048 1.4019,-0.28494 0.60417,-0.60416 z m 138,-1 c -0.72188,-0.28887 -1.58438,-0.25335 -1.91667,0.0789 -0.33229,0.33229 0.25834,0.56864 1.3125,0.52522 1.16495,-0.048 1.4019,-0.28494 0.60417,-0.60416 z m -152.11375,-3.38262 c -4.63444,-1.60332 -8.60006,-2.74131 -8.8125,-2.52887 -0.50136,0.50135 13.77308,5.43554 15.73875,5.44034 0.825,0.002 -2.29181,-1.30815 -6.92625,-2.91147 z m 115.92625,-0.46132 c 40.10004,-6.18802 72.50796,-20.51644 94.87653,-41.94752 9.91028,-9.49493 15.58799,-16.63968 20.73736,-26.09564 2.07554,-3.8114 4.19416,-7.217 4.70803,-7.56802 0.51387,-0.351 0.58213,-1.20803 0.15169,-1.9045 -0.54539,-0.88245 -0.38115,-1.01819 0.54182,-0.44776 0.96167,0.59434 1.14954,0.36277 0.68589,-0.84549 -0.3512,-0.91523 -0.22075,-1.66405 0.28988,-1.66405 1.54198,0 4.96601,-12.69512 6.05282,-22.44172 1.91867,-17.20678 -2.17267,-37.08029 -10.62435,-51.60727 -24.08783,-41.40283 -77.22352,-66.21685 -146.91967,-68.61052 -80.25632,-2.75634 -147.2299,27.00278 -170.43462,75.73114 -5.45888,11.46327 -7.09739,18.3162 -7.75354,32.42837 -0.87533,18.82653 2.55208,32.69323 12.10173,48.96137 5.19334,8.84703 20.67459,24.55352 30.58643,31.03146 8.24277,5.3871 24.06752,13.88084 28,15.02864 1.375,0.40133 7.01375,2.64741 12.53055,4.99128 19.06332,8.09926 39.68623,13.42901 61.96945,16.01531 15.13985,1.7572 47.85447,1.20494 62.5,-1.05508 z m -64,-2.59558 c -15.96327,-1.83712 -42.4246,-8.44836 -47.83685,-11.95182 -1.48339,-0.96023 -1.4644,-1.01409 0.17568,-0.49838 1.0447,0.3285 2.85212,-0.21884 4.18512,-1.26738 l 2.34628,-1.84558 -5.68512,-2.28254 c -7.93068,-3.18412 -23.35451,-11.39694 -30.60162,-16.29463 -3.34592,-2.26121 -5.51544,-3.4118 -4.82116,-2.55686 1.03064,1.26913 0.9764,1.79174 -0.29551,2.84733 -0.85681,0.71109 -1.3047,1.95257 -0.9953,2.75884 1.53915,4.01095 -16.25918,-10.56259 -23.47152,-19.21884 -20.03893,-24.05074 -25.89307,-52.07412 -16.83071,-80.56754 2.34895,-7.38543 10.73859,-24.00623 14.38588,-28.5 l 2.4349,-3 0.0269,4 c 0.13319,19.78465 33.38848,39.22116 79.89768,46.69733 l 13.86244,2.22833 -2.38856,3.13156 c -1.73385,2.27319 -2.36455,4.33916 -2.30095,7.53717 0.0922,4.63485 1.54933,15.35338 1.77878,13.08418 0.0735,-0.72678 0.78044,-1.96826 1.57101,-2.75883 1.24987,-1.24987 1.51428,-0.81654 2.02664,3.32143 5.80993,46.92305 19.78312,78.42833 36.91138,83.22395 19.13869,5.3585 37.70337,-25.28688 44.33653,-73.1879 1.68754,-12.18644 1.90721,-12.88955 3.90791,-12.50829 1.97466,0.3763 2.16553,-0.14358 2.78651,-7.58966 0.64623,-7.74884 0.58355,-8.08036 -2.04696,-10.82602 -1.49248,-1.55781 -2.52141,-3.01247 -2.28651,-3.23258 0.23491,-0.22011 5.3771,-1.16781 11.4271,-2.10602 23.02162,-3.57007 46.36815,-11.06622 59.8959,-19.23149 7.77249,-4.69144 17.2252,-13.62804 19.84764,-18.76399 1.11794,-2.18945 2.08299,-5.89921 2.14454,-8.24389 0.0616,-2.34469 0.42631,-4.26581 0.81055,-4.26917 1.39545,-0.0122 10.91715,16.67107 13.83907,24.24786 4.82619,12.51473 6.28561,20.0984 6.30175,32.74603 0.0172,13.5026 -1.74813,21.59163 -7.34889,33.6733 -4.75062,10.2478 -8.49303,15.70175 -16.86115,24.5724 -7.40782,7.85267 -22.03564,19.64766 -19.72016,15.90114 0.39505,-0.6392 -9.6e-4,-1.88141 -0.88001,-2.76046 -1.31787,-1.31787 -1.37292,-1.87391 -0.31376,-3.1694 1.49165,-1.82448 1.47838,-1.81726 -7.43969,4.04725 -5.39184,3.54567 -24.45953,13.28529 -33.27579,16.99701 -2.2,0.92622 -2.98612,1.44059 -1.74693,1.14304 1.35451,-0.32524 2.89209,0.098 3.85537,1.0613 0.93502,0.93503 2.39132,1.35188 3.49693,1.00098 1.04205,-0.33074 1.89463,-0.38312 1.89463,-0.11641 0,0.78162 -17.75912,6.43425 -27,8.59395 -15.42349,3.60464 -30.91267,5.06354 -52.30122,4.92616 -11.10933,-0.0713 -23.57378,-0.51814 -27.69878,-0.99286 z m 3,-8.89884 c 0,-0.56179 -1.15906,-2.77289 -2.57568,-4.91356 -9.90795,-14.97191 -18.56868,-47.83786 -20.09721,-76.26535 l -0.63267,-11.76635 -3.59722,-0.61194 c -29.59148,-5.03399 -51.56,-12.25902 -66.67553,-21.92831 -3.22451,-2.06269 -8.67818,-6.45386 -12.11926,-9.75816 l -6.25651,-6.00781 -2.09628,4.88646 c -3.57309,8.32891 -5.93513,20.2438 -5.94263,29.9765 -0.0352,45.72781 43.73243,84.02111 109.49299,95.79781 10.08362,1.80582 10.5,1.82924 10.5,0.59071 z m 69.5,-2.11396 c 13.93423,-2.7487 31.22753,-8.70397 44.09444,-15.18473 29.18691,-14.70075 47.66104,-34.55369 55.5585,-59.70509 3.00606,-9.57353 3.22042,-27.80052 0.4466,-37.97478 -1.60188,-5.87565 -5.46303,-16 -6.10196,-16 -0.14087,0 -3.15041,2.8125 -6.68785,6.25 -15.23944,14.80887 -40.01939,24.72186 -77.93243,31.17614 l -3.6227,0.61672 -0.68609,10.22857 c -1.38689,20.67623 -5.01981,40.46417 -10.20177,55.56737 -2.76778,8.0669 -8.33301,19.84194 -11.49225,24.31557 -1.03097,1.4599 -1.87449,2.96196 -1.87449,3.3379 0,0.78264 4.32871,0.16781 18.5,-2.62767 z m -49.81656,-36.83768 c -3.96777,-3.48375 -7.9553,-11.85999 -10.63637,-22.34287 -2.2149,-8.66019 -4.04707,-20.94412 -4.04707,-27.13396 0,-2.67409 -0.58899,-4.79402 -1.5546,-5.5954 -0.85502,-0.70961 -1.95864,-2.04517 -2.45247,-2.9679 -0.82963,-1.55018 1.06961,-1.6777 24.98761,-1.6777 l 25.88549,0 -2.28896,3.09546 c -1.81474,2.45415 -2.52681,5.37438 -3.43705,14.09545 -2.03516,19.49924 -8.47942,38.47541 -14.73799,43.39841 -3.76453,2.96118 -7.68554,2.66958 -11.71859,-0.87149 z m 11.80108,-2.44183 c 3.72908,-3.95397 7.7526,-14.1144 10.01093,-25.28015 1.8263,-9.02968 3.34656,-22.1296 2.64911,-22.82705 -0.26284,-0.26284 -8.76027,-0.47789 -18.88318,-0.47789 l -18.40529,0 0.64646,5.75 c 2.45124,21.80273 7.04387,36.82987 13.29456,43.5 3.49493,3.72945 6.73299,3.52799 10.68741,-0.6649 z m -26.73666,-81.31369 -3.75215,-0.39239 0.60966,-4.1895 c 2.31355,-15.89855 7.11798,-31.24777 12.18839,-38.93951 3.21359,-4.87496 4.61071,-4.8022 3.93908,0.20514 l -0.53049,3.95514 2.85209,-2.10865 c 3.54609,-2.62174 8.05556,-2.57155 11.85222,0.13191 l 2.90313,2.06721 -0.55117,-4.25037 -0.55117,-4.25038 2.17087,1.92725 c 4.97702,4.41848 11.30309,22.33689 13.84113,39.20466 l 0.92265,6.1319 -5.07105,0.6094 c -5.33623,0.64127 -34.411,0.56877 -40.82319,-0.10181 z m 42.32578,-3.1338 c -0.92389,-1.72631 -2.44282,-1.85419 -20.78519,-1.75 -28.31025,0.16081 -28.84915,1.96653 -0.78845,2.6419 12.1,0.29123 22.12833,0.62873 22.28518,0.75 0.15685,0.12128 -0.16334,-0.61758 -0.71154,-1.6419 z m -4.73153,-4.8876 c 0.75522,-1.23095 -3.96949,-18.59344 -6.35262,-23.34478 -6.41407,-12.78797 -13.73175,-13.17139 -19.91885,-1.04367 -1.96203,3.84589 -7.06246,21.08405 -7.06812,23.88845 -0.002,0.94942 3.951,1.25 16.43846,1.25 9.04254,0 16.64805,-0.3375 16.90113,-0.75 z m -59.5674,3.94577 c -1.53697,-2.60188 -2.43647,-2.91805 -12.4656,-4.3816 -7.76084,-1.13253 -12.86621,-1.34459 -18.10354,-0.75194 -6.44044,0.7288 -8.19654,0.53105 -15,-1.68906 -7.07469,-2.30863 -17.54322,-7.49245 -18.60714,-9.2139 -0.24411,-0.39498 2.22138,-0.46332 5.47887,-0.15188 3.25748,0.31145 5.9227,0.4739 5.9227,0.361 0,-0.1129 -1.59003,-1.18796 -3.53339,-2.38902 -6.98385,-4.31626 -10.01688,-11.77165 -7.49136,-18.41427 0.96587,-2.54043 0.9274,-2.5651 -4,-2.5651 -3.18769,0 -4.97525,-0.42877 -4.97525,-1.1934 0,-0.65637 2.43499,-3.55187 5.41108,-6.43444 14.0001,-13.56017 49.92795,-24.66132 92.08892,-28.45404 50.42765,-4.53639 121.17992,12.95738 132.78618,32.83188 l 1.89792,3.25 -5.19904,0 c -4.54844,0 -5.11243,0.219 -4.50697,1.75 1.58476,4.00733 1.66457,8.07185 0.21295,10.84522 -1.81255,3.46294 -7.02763,8.51994 -11.19104,10.85182 -1.65,0.92415 -2.1,1.35628 -1,0.96028 1.1,-0.39599 4.62307,-1.00711 7.82905,-1.35804 5.13742,-0.56234 5.61202,-0.47111 4,0.76887 -3.17641,2.44331 -15.93839,8.26087 -20.98188,9.5646 -3.13408,0.81015 -7.32112,1.01327 -11.84717,0.57472 -4.5655,-0.44237 -10.79722,-0.13134 -17.91828,0.89431 -10.15778,1.46303 -11.02845,1.7663 -12.5,4.35407 -0.86995,1.52983 -1.87274,2.78435 -2.22843,2.78784 -0.35569,0.003 -1.19492,-3.93118 -1.86494,-8.74368 -1.71488,-12.31725 -6.19009,-29.55247 -10.27515,-39.57235 -3.48081,-8.53775 -3.25633,-9.69205 1.21979,-6.27242 2.47465,1.89056 -4.09036,-9.24292 -7.85435,-13.32005 -9.58334,-10.38063 -36.55349,-9.94665 -44.88521,0.72224 -3.86037,4.94328 -8.98779,13.97254 -7.15387,12.59781 4.49155,-3.36692 4.74319,-2.30262 1.40013,5.92186 -5.61289,13.80868 -11.43969,37.41656 -11.43969,46.34912 0,3.11154 -1.20991,2.93131 -3.22529,-0.48045 z m -3.77471,-6.58569 c 0,-0.21445 0.87311,-4.60195 1.94025,-9.75 3.60188,-17.37608 8.3542,-30.44279 15.12579,-41.58906 2.16368,-3.56148 3.93396,-6.7195 3.93396,-7.01782 0,-1.96685 -28.16285,3.21811 -42.87961,7.89441 -21.50727,6.834 -37.12833,17.3181 -37.1138,24.90899 0.0189,9.87787 14.40956,18.01587 42.16049,23.84201 8.61125,1.80788 16.83292,2.64381 16.83292,1.71147 z m 109.47989,-1.65208 c 31.09606,-6.00092 47.00994,-16.11858 42.49543,-27.01757 -3.92944,-9.48651 -28.21672,-21.16011 -55.9508,-26.89257 -11.71131,-2.42066 -23.02452,-3.7093 -23.02452,-2.62263 0,0.39293 1.39098,2.73615 3.09108,5.20715 6.32814,9.19765 12.33125,25.51459 15.40335,41.86762 0.92991,4.95 1.85996,9.5625 2.06678,10.25 0.52041,1.72998 3.65936,1.57381 15.91868,-0.792 z m 19.89617,147.42953 c 2.60278,-0.88686 4.55937,-1.78543 4.34797,-1.99682 -0.2114,-0.21141 -2.82329,0.48133 -5.8042,1.5394 -2.9809,1.05806 -4.93749,1.95664 -4.34797,1.99682 0.58952,0.0402 3.20141,-0.65253 5.8042,-1.5394 z m 10.64519,-4.01271 c 2.23395,-0.89385 3.88365,-1.80325 3.666,-2.0209 -0.21764,-0.21765 -2.37381,0.4819 -4.79148,1.55454 -5.35364,2.37524 -4.5144,2.72299 1.12548,0.46636 z m -195.9698,-5.43358 c -22.65064,-10.91605 -42.00032,-25.868 -54.10244,-41.80621 -6.2824,-8.27377 -13.14636,-22.14712 -16.14647,-32.63503 -1.95844,-6.84638 -2.27343,-10.16303 -2.1844,-23 0.15991,-23.05412 4.39464,-37.91296 15.56419,-54.61161 21.67666,-32.40696 63.30758,-54.81174 117.81767,-63.40668 16.33814,-2.57614 55.85583,-3.12823 74,-1.03384 78.80414,9.09639 132.27605,46.93491 142.09632,100.55213 1.99528,10.89392 1.51958,31.1847 -0.94949,40.5 -7.80711,29.45469 -30.33295,54.61002 -65.45125,73.09151 -12.00134,6.31587 -12.30407,7.23746 -0.42338,1.28891 46.9123,-23.48859 72.74382,-61.25813 70.36245,-102.88042 -3.37033,-58.90764 -56.72175,-102.02711 -140.63465,-113.66316 -17.39817,-2.412575 -56.64365,-2.409227 -74,0.006 -46.19941,6.42972 -82.0844,21.36348 -107.2119,44.61689 -14.70955,13.61247 -26.26771,32.16962 -30.85554,49.53996 -2.69909,10.21924 -3.64302,28.79684 -1.9853,39.07296 4.64941,28.82154 23.10857,54.6284 52.82094,73.8464 7.20931,4.66299 30.81181,16.59429 32.7318,16.54625 0.55,-0.0138 -4.60185,-2.72473 -11.44855,-6.02437 z"
         id="path3006"
         inkscape:connector-curvature="0" />
      <path
         style="fill:#827e82"
         d="m 180.3835,444.50727 c -10.42872,-2.64683 -20.31417,-10.74924 -25.17302,-20.63256 -2.3986,-4.87896 -2.71008,-6.66188 -2.71008,-15.51254 0,-8.94179 0.29807,-10.6072 2.81674,-15.73799 1.5492,-3.1559 4.86827,-7.78953 7.37569,-10.29696 18.3193,-18.3193 48.48428,-13.1322 59.99947,10.31737 2.50857,5.10845 2.80769,6.78295 2.80769,15.71758 0,8.94362 -0.29773,10.6063 -2.81838,15.73943 -7.70833,15.69749 -26.02759,24.53516 -42.29811,20.40567 z m 15.30139,-13.70643 c 9.72328,-3.66582 16.19766,-17.40528 13.413,-28.46415 -3.09239,-12.28098 -13.07992,-19.20128 -24.59422,-17.04119 -4.42598,0.83032 -10.88243,6.458 -13.76542,11.99846 -2.94284,5.65547 -2.9503,16.48207 -0.0152,22.06821 2.44886,4.66073 7.7035,9.96412 11.27695,11.38157 3.36001,1.33279 10.22527,1.36143 13.6849,0.0571 z m 132.67015,14.07992 c -10.75751,-2.27982 -21.49603,-10.81905 -26.18487,-20.82209 -2.33697,-4.98563 -2.67018,-6.94703 -2.67018,-15.71753 0,-9.29102 0.23746,-10.50337 3.25968,-16.64238 3.92114,-7.96497 9.23436,-13.00297 18.07764,-17.14124 5.6606,-2.64891 7.71166,-3.07837 14.62338,-3.06196 10.69597,0.0254 17.6793,2.75012 25.42294,9.91938 8.49448,7.86437 11.61636,15.10642 11.61636,26.94724 0,7.82136 -0.37991,9.8227 -2.90094,15.28203 -7.04556,15.25729 -25.24365,24.6275 -41.24401,21.23656 z m 15.52947,-14.95968 c 5.36065,-2.73478 9.76945,-8.1546 11.57255,-14.22631 1.92637,-6.48677 1.92481,-8.18365 -0.0135,-14.71069 -2.79561,-9.41382 -10.92132,-16.12191 -19.52897,-16.12191 -13.4466,0 -23.20465,14.00759 -20.10402,28.85911 2.9759,14.25405 16.54266,22.08262 28.07394,16.1998 z m -233.88452,-14.55891 0,-28.5 -10.999998,0 -11,0 0,-6.51488 0,-6.51488 29.749998,0.26488 29.75,0.26488 0.29772,6.25 0.29772,6.25 -11.04772,0 -11.04772,0 0,28.5 0,28.5 -8,0 -8,0 0,-28.5 z m 144,15.00066 0,-13.49933 -13.5,-21.11121 c -7.425,-11.61116 -13.5,-21.30334 -13.5,-21.53819 0,-0.23484 4.15885,-0.2976 9.24188,-0.13946 l 9.24189,0.28753 8.00811,14.23952 c 4.40447,7.83173 8.2352,14.24424 8.51273,14.25 0.27754,0.006 4.35043,-6.40201 9.05088,-14.23952 l 8.54626,-14.25 8.69912,-0.28893 c 4.78452,-0.15892 8.69913,-0.0767 8.69913,0.18275 0,0.25943 -6.075,9.98221 -13.5,21.60618 l -13.5,21.1345 0,13.43275 0,13.43275 -8,0 -8,0 0,-13.49934 z m 146,-15.00066 0,-28.5 -11.54772,0 -11.54771,0 0.29771,-6.25 0.29772,-6.25 29.75,-0.26488 29.75,-0.26488 0,6.51488 0,6.51488 -10.5,0 -10.5,0 0,28.5 0,28.5 -8,0 -8,0 0,-28.5 z m 32,28.09672 c 0,-0.26309 6.34694,-15.46748 14.10431,-33.78753 7.75736,-18.32005 14.33051,-33.87169 14.60698,-34.55919 0.35374,-0.87962 3.37874,-1.25 10.20912,-1.25 l 9.70643,0 12.1729,29.75 c 12.00982,29.35144 15.20026,37.62434 15.20026,39.41466 0,0.5032 -3.91342,0.78348 -8.71623,0.62428 l -8.71624,-0.28893 -2.91407,-7.75 -2.91407,-7.75 -14.28521,0 -14.28521,0 -2.94783,7.75 -2.94782,7.75 -9.13666,0.28753 c -5.02516,0.15813 -9.13666,0.0723 -9.13666,-0.19082 z M 480.19483,416.334 c 0.61438,-0.61438 -8.41413,-24.44911 -9.26639,-24.46271 -0.859,-0.0137 -9.76811,23.81788 -9.13913,24.44687 0.70013,0.70013 17.7066,0.71476 18.40552,0.0158 z M 274.99999,342.83202 c -79.59988,-7.56178 -137.67432,-44.92589 -153.21327,-98.57482 -2.00288,-6.91503 -2.27693,-10.00522 -2.20782,-24.89503 0.0717,-15.44486 0.32357,-17.80288 2.75334,-25.77663 3.27352,-10.74266 9.85668,-24.04457 16.19491,-32.72337 12.75795,-17.46918 34.1953,-33.79569 58.20953,-44.33187 54.24942,-23.801805 131.18283,-26.095086 189.76331,-5.65659 59.4094,20.7277 94.67378,64.14551 92.17647,113.48846 -0.86105,17.01314 -5.25274,31.32109 -13.99885,45.60777 -22.31989,36.45929 -68.14589,62.17732 -126.30869,70.88574 -15.95935,2.38952 -48.37682,3.40055 -63.36893,1.97634 z m 57.5,-3.56299 c 72.80328,-9.00932 126.04023,-44.50563 141.16761,-94.12502 2.4117,-7.91066 2.68224,-10.36909 2.72711,-24.78184 0.0539,-17.30908 -0.70113,-21.54716 -6.53964,-36.70855 -5.38257,-13.97744 -17.71809,-30.60981 -30.84165,-41.58478 -25.12587,-21.01225 -58.95607,-34.63195 -101.51343,-40.8683 -18.71824,-2.742969 -61.19019,-2.476095 -80.35558,0.50492 -46.03269,7.15999 -80.31212,22.42549 -104.74374,46.64505 -13.94576,13.82471 -22.15383,26.64271 -27.22255,42.51166 -5.07822,15.89872 -5.73119,35.6212 -1.70483,51.49358 16.91919,66.69742 108.83252,109.31218 209.0267,96.91328 z m -57.5,-0.0102 c -50.59138,-5.81295 -87.4117,-19.97719 -116.10266,-44.663 -14.82212,-12.75301 -27.33954,-31.52887 -31.83527,-47.75224 -2.88162,-10.39868 -2.53025,-13.011 0.53552,-3.98144 12.93628,38.101 47.68707,65.4427 100.52,79.08852 6.81032,1.759 14.2948,3.24617 16.63216,3.30482 2.33736,0.0587 4.24986,0.47073 4.25,0.91568 1.4e-4,0.44497 0.4518,0.52995 1.00369,0.18886 0.55189,-0.34108 5.83939,0.19486 11.75,1.19099 15.40643,2.59648 58.05485,2.58908 73.74656,-0.0128 18.5612,-3.07767 38.45435,-8.61716 51.35756,-14.30111 2.94666,-1.29802 5.82869,-2.06887 6.40451,-1.71299 0.57582,0.35588 0.755,0.17467 0.39818,-0.40268 -0.35682,-0.57734 0.047,-1.31672 0.89743,-1.64305 0.87552,-0.33597 1.28426,-0.16951 0.94232,0.38376 -0.34194,0.55327 0.0668,0.71973 0.94232,0.38376 0.85041,-0.32633 1.25425,-1.06571 0.89743,-1.64305 -0.37059,-0.59963 -0.17078,-0.75432 0.466,-0.36076 2.96266,1.83102 27.10095,-13.61891 39.2375,-25.11432 12.49146,-11.83157 17.2297,-18.6791 29.4928,-42.62189 3.62162,-7.07095 6.79047,-12.65055 7.04189,-12.39913 1.00824,1.00824 -1.80667,15.70304 -4.51093,23.54864 -4.65178,13.49571 -11.07631,23.19801 -24.06701,36.34589 -21.09493,21.35017 -47.15284,35.37052 -82.35671,44.31166 -21.05669,5.34802 -33.17724,6.77442 -60.14329,7.07792 -13.2,0.14856 -25.575,0.0892 -27.5,-0.13204 z m -3,-14.45824 c -9.86433,-1.21344 -23.09744,-3.69489 -30.22456,-5.66764 -5.67023,-1.56952 -5.69999,-1.59731 -3.1357,-2.92768 1.42388,-0.73872 3.54994,-1.36636 4.72457,-1.39477 1.17463,-0.0284 -2.81431,-1.81568 -8.86431,-3.97173 -14.2486,-5.07779 -32.94258,-14.33292 -42.82709,-21.20311 -4.3049,-2.9921 -11.46925,-9.00268 -15.92078,-13.35684 -4.45153,-4.35417 -7.1284,-6.51345 -5.94861,-4.7984 2.14267,3.11478 2.14284,3.1203 0.1463,4.92714 -1.98606,1.79736 -1.97799,1.83161 1.26863,5.38173 1.79707,1.96508 0.87439,1.32286 -2.0504,-1.42714 -11.13567,-10.47018 -20.14613,-25.34394 -24.36183,-40.21454 -1.78265,-6.28819 -2.19716,-10.28555 -2.15537,-20.78546 0.0592,-14.87743 1.88271,-23.29278 7.84214,-36.1912 3.8514,-8.33583 10.52169,-19.28564 11.75701,-19.30005 0.4125,-0.005 0.75,1.58121 0.75,3.5245 0,10.22433 13.73414,24.0986 31.87307,32.19829 13.7457,6.13795 35.81714,12.17202 52.5126,14.3563 l 9.65252,1.26286 -2.6712,2.78813 -2.6712,2.78813 0.72074,11.78652 c 0.65646,10.73532 3.20336,28.31835 3.47134,23.9651 0.0617,-1.00178 0.70152,-2.41082 1.42189,-3.1312 1.07968,-1.07967 1.62964,0.29428 3.1307,7.82143 5.16997,25.92507 13.50156,45.48127 23.64623,55.50322 19.56587,19.3292 41.65931,-2.55059 52.31223,-51.80638 1.33534,-6.17419 2.63829,-11.43619 2.89544,-11.69334 0.25715,-0.25715 1.13603,0.20093 1.95306,1.01797 1.31402,1.31402 1.61421,0.48255 2.60025,-7.20238 0.61311,-4.77835 1.40582,-12.39487 1.76159,-16.92562 0.60949,-7.76197 0.50163,-8.42811 -1.86758,-11.53431 l -2.51443,-3.29659 11.61245,-1.79141 c 32.17841,-4.96403 59.28559,-15.80874 72.46959,-28.99273 5.98604,-5.98604 8.75973,-11.07993 9.47145,-17.39436 l 0.48777,-4.32746 3.42096,5.07983 c 19.50055,28.95665 22.03187,63.22179 6.70275,90.7315 -3.83494,6.88219 -13.49486,19.36561 -18.00156,23.26325 l -2.89066,2.5 2.25,-2.56445 c 2.68899,-3.06479 2.75304,-3.72221 0.59501,-6.10681 -1.54401,-1.70612 -1.52725,-1.97859 0.25,-4.06348 1.04775,-1.2291 -2.03156,1.44169 -6.84289,5.9351 -15.27207,14.26291 -35.68548,25.98468 -58.75212,33.73658 -5.775,1.94078 -9.3525,3.53642 -7.95,3.54587 1.4025,0.009 2.9775,0.42351 3.5,0.92013 0.5225,0.49662 1.85,1.07657 2.95,1.28879 2.44174,0.47109 -11.77251,4.15746 -24.60068,6.38002 -11.08145,1.91994 -52.24468,2.80034 -63.89932,1.36669 z m 1,-8.95831 c 0,-0.56093 -1.17619,-2.88309 -2.61376,-5.16034 -10.94823,-17.34312 -20.38624,-55.72558 -20.38624,-82.90669 0,-4.25429 -0.28648,-4.93283 -2.25,-5.32926 -1.2375,-0.24984 -6.525,-1.22424 -11.75,-2.16533 -29.98984,-5.40154 -54.36573,-15.8471 -67.9801,-29.13085 -7.63915,-7.45362 -7.52507,-7.50408 -11.74222,5.19409 -2.40238,7.23372 -2.66534,9.48589 -2.68766,23.01825 -0.0226,13.72978 0.19862,15.61883 2.61285,22.30777 11.39422,31.56925 42.12952,56.47075 84.88118,68.77006 8.44309,2.42901 25.94751,6.10096 30.16595,6.32799 0.9625,0.0518 1.75,-0.36476 1.75,-0.92569 z m 67.5,-1.62432 c 68.917,-13.16312 112.58942,-59.13579 103.08815,-108.51784 -1.43539,-7.46033 -5.10941,-18.55224 -6.72423,-20.30055 -0.54991,-0.59536 -2.03169,0.4236 -3.88422,2.67104 -10.79319,13.09401 -37.6612,25.58978 -67.4797,31.38344 -7.15,1.38923 -13.96445,2.72089 -15.14322,2.95924 -1.94477,0.39324 -2.20431,1.29061 -2.80288,9.69111 -2.28794,32.10974 -8.83697,58.27427 -19.08917,76.26454 -2.4556,4.30903 -4.46473,8.02233 -4.46473,8.2518 0,0.4965 5.55809,-0.31288 16.5,-2.40278 z m -47.40881,-36.93253 c -6.56995,-5.52825 -13.25312,-26.30503 -14.72464,-45.77631 -0.53429,-7.06974 -1.11771,-9.38623 -2.89634,-11.5 l -2.22728,-2.64697 25.37854,0 c 13.95819,0 25.37853,0.196 25.37853,0.43555 0,0.23955 -0.84212,1.36455 -1.87138,2.5 -1.38806,1.53127 -2.17519,4.90539 -3.04774,13.06445 -2.92723,27.37214 -11.19948,46.5 -20.10991,46.5 -1.56877,0 -4.17474,-1.14203 -5.87978,-2.57672 z m 12.58428,-4.20861 c 4.97658,-6.54213 9.90139,-24.20781 11.69886,-41.96467 l 0.53144,-5.25 -18.95288,0 -18.95289,0 0.006,2.25 c 0.0128,4.89242 3.10214,22.63279 5.09152,29.2379 5.9271,19.67913 13.29063,25.3067 20.57805,15.72677 z M 124.07894,233.4455 c -0.0434,-1.05416 0.19293,-1.64479 0.52522,-1.3125 0.33229,0.33229 0.36782,1.19479 0.079,1.91667 -0.31923,0.79773 -0.55618,0.56078 -0.60417,-0.60417 z m 171.17105,-40.3118 c 2.0625,-0.21574 5.4375,-0.21574 7.5,0 2.0625,0.21575 0.375,0.39226 -3.75,0.39226 -4.125,0 -5.8125,-0.17651 -3.75,-0.39226 z m -20.23526,-2.61444 c -0.0444,-8.55957 8.15614,-37.40859 11.16165,-39.2661 0.68897,-0.42581 0.91745,0.96124 0.67027,4.06915 -0.35879,4.51124 -0.31007,4.61406 1.12648,2.37752 6.55876,-10.21127 13.95621,-10.4397 21.04787,-0.64996 l 2.8797,3.97532 -0.51267,-3.83151 c -0.28197,-2.10733 -0.6675,-4.61901 -0.85673,-5.58151 -0.65483,-3.3306 0.58638,-1.72304 3.53544,4.57894 3.27673,7.00222 7.29787,21.90667 8.40978,31.17106 l 0.72012,6 -2.18665,-2.77002 -2.18666,-2.77001 -20.63292,0.27001 -20.63293,0.27002 -1.264,2.5 -1.26401,2.5 -0.0147,-2.84291 z m 40.38109,-7.90709 c -0.3048,-1.78749 -1.46402,-6.39455 -2.57605,-10.23789 -6.63252,-22.92306 -16.63129,-27.08696 -24.38334,-10.15423 -2.29356,5.00978 -6.43644,19.36477 -6.43644,22.30209 0,1.06742 3.45337,1.34003 16.975,1.34003 l 16.975,0 -0.55417,-3.25 z m 23.21781,3.55169 c -0.66475,-5.87565 -4.84848,-26.97866 -6.10652,-30.80169 -0.59114,-1.79643 -0.54361,-1.82188 0.46706,-0.25 0.61886,0.96251 1.74034,1.75 2.49218,1.75 0.75183,0 1.61162,0.5625 1.91062,1.25 0.29901,0.6875 0.28196,-0.1 -0.0379,-1.75 -1.80847,-9.32951 -11.4999,-28.51369 -17.00025,-33.65198 -6.71369,-6.27175 -24.06052,-8.40159 -35.22056,-4.32437 -8.13281,2.97126 -15.70345,13.03508 -21.44003,28.50073 -2.63192,7.09557 -4.18808,13.09304 -2.95864,11.40268 0.42921,-0.59011 1.61794,-1.3827 2.64163,-1.7613 1.62343,-0.60041 1.7687,-0.33556 1.13693,2.07294 -1.92334,7.33232 -5.47835,26.12637 -5.48768,29.0113 -0.0126,3.89272 -0.76244,4.06296 -3.47294,0.78844 -1.7483,-2.11213 -3.81197,-2.74733 -14.53754,-4.47467 -29.49927,-4.75081 -47.67936,-13.50725 -49.62984,-23.90418 -0.59348,-3.16353 -0.28515,-4.71541 2.01854,-10.15959 0.52561,-1.24215 -0.22678,-1.44043 -4.37699,-1.15348 -6.49513,0.44908 -6.48988,-0.85681 0.028,-6.97612 11.99875,-11.26502 42.627,-21.67947 77.96029,-26.50865 41.18478,-5.62892 94.67276,1.6053 126.59471,17.12189 10.54664,5.1265 20.40529,12.6498 20.40529,15.57161 0,0.74181 -1.8395,1.01221 -5.356,0.7873 l -5.35599,-0.34255 1.96455,3.76457 c 6.45095,12.36159 -8.95981,24.11504 -39.52595,30.14559 -6.72464,1.32673 -14.35161,2.7029 -16.94882,3.05815 -3.65116,0.49941 -5.26352,1.33756 -7.10878,3.69537 l -2.38656,3.04946 -0.66881,-5.91145 z m -86.2009,-5.55169 c 5.11552,-25.52952 11.42264,-43.08353 19.20033,-53.43851 1.31721,-1.75368 2.05562,-3.39709 1.64092,-3.65202 -0.41469,-0.25493 -5.25399,0.19192 -10.75399,0.993 -30.07653,4.38068 -56.58396,14.66568 -66.25,25.70529 -10.39995,11.87782 4.67457,23.75911 38.80469,30.58472 13.3804,2.67592 16.79087,2.6381 17.35805,-0.19248 z m 116.31646,-1.22251 c 27.60374,-6.71004 40.12928,-16.16534 34.87482,-26.32634 -4.63397,-8.96111 -25.25641,-19.19445 -50.78564,-25.20103 -11.12626,-2.61781 -27.81838,-4.93701 -27.81838,-3.86507 0,0.45437 1.55582,3.25826 3.45739,6.23089 6.82138,10.66354 14.44107,33.01585 16.19689,47.51345 l 0.6515,5.37939 6.59711,-0.62236 c 3.62841,-0.34231 11.20025,-1.74132 16.82631,-3.10893 z m 99.2708,9.73879 c 0,-1.05836 -9.655,-15.69824 -17.32261,-26.26628 -6.28517,-8.66265 -19.37424,-20.92581 -29.70535,-27.83096 -32.43955,-21.68207 -73.45671,-32.46494 -123.47204,-32.45916 -50.40348,0.006 -91.90131,10.93209 -124.48805,32.77737 -15.44637,10.35484 -22.03344,16.978 -36.32888,36.52797 -1.30674,1.78705 -1.24833,1.50197 0.20797,-1.01522 16.95432,-29.30505 54.8979,-53.29092 100.26068,-63.37936 22.63453,-5.03379 33.3263,-6.06856 62.34828,-6.03418 29.98867,0.0355 44.70556,1.66517 67.03769,7.42326 45.8633,11.82536 81.5138,36.43761 96.9313,66.91904 3.33986,6.60311 5.73418,13.20141 5.04169,13.8939 -0.28088,0.28087 -0.51068,0.0305 -0.51068,-0.55638 z m -263.5,-9.26628 c -1.63041,-0.70061 -1.68751,-0.87241 -0.30902,-0.92971 0.93004,-0.0387 1.9691,0.37971 2.30902,0.92971 0.71066,1.14988 0.67591,1.14988 -2,0 z m 187.23333,-0.12408 c 0.67834,-0.68342 1.48524,-0.99067 1.79313,-0.68279 0.30789,0.30789 -0.24711,0.86705 -1.23333,1.24258 -1.4252,0.54269 -1.54006,0.42782 -0.5598,-0.55979 z"
         id="path3004"
         inkscape:connector-curvature="0" />
      <path
         style="fill:#636163"
         d="m 180.23014,444.3711 c -7.44935,-2.0894 -10.87469,-4.05953 -16.79797,-9.66152 -9.68793,-9.16244 -13.67165,-23.63209 -9.99153,-36.29122 2.18351,-7.51102 5.14691,-12.10094 11.50145,-17.81421 15.92009,-14.31354 40.76797,-11.55188 53.95359,5.99651 7.82753,10.41747 9.34548,25.64943 3.73106,37.43949 -7.35132,15.43748 -26.72312,24.72707 -42.3966,20.33095 z m 17.37383,-14.55927 c 19.60627,-9.49123 14.36293,-42.96101 -7.00786,-44.73325 -16.83373,-1.39598 -27.93199,18.44393 -19.53005,34.91309 5.45097,10.68479 16.38998,14.73269 26.53791,9.82016 z m 129.89602,14.70013 c -11.37783,-2.95311 -20.6279,-10.42234 -25.32982,-20.45329 -2.3358,-4.98313 -2.67018,-6.94879 -2.67018,-15.6965 0,-8.74771 0.33438,-10.71337 2.67018,-15.6965 5.07201,-10.82049 15.35249,-18.54093 27.66106,-20.7729 16.14299,-2.92728 32.62341,6.03703 39.9887,21.75133 2.28611,4.87756 2.68006,7.04409 2.68006,14.7391 0,8.17034 -0.30875,9.64819 -3.27411,15.67169 -7.78076,15.80496 -25.73507,24.60747 -41.72589,20.45707 z m 15.1849,-13.71112 c 3.82574,-1.44236 9.04665,-6.59419 11.59205,-11.43867 1.55448,-2.95853 2.1017,-5.82258 2.1017,-11 0,-7.98956 -2.05593,-12.94838 -7.54102,-18.18867 -13.31664,-12.7223 -33.74984,-1.71031 -33.74984,18.18867 0,16.03151 14.12633,27.51735 27.59711,22.43867 z M 110.66666,443.1955 c -0.36667,-0.36666 -0.66667,-13.19166 -0.66667,-28.5 l 0,-27.83333 -11.047715,0 -11.047718,0 0.297718,-6.25 0.297717,-6.25 29.499998,0 29.5,0 0,6 0,6 -10.75,0.28383 -10.75,0.28384 0,28.46616 0,28.46617 -7.33333,0 c -4.03333,0 -7.63333,-0.3 -8,-0.66667 z m 143.33333,-12.86318 0,-13.52985 -13.49463,-21.22015 -13.49463,-21.22015 8.16104,-0.29313 c 4.48857,-0.16122 8.64866,-0.1021 9.24463,0.13138 0.59597,0.23348 4.68359,6.77456 9.08359,14.53573 4.4,7.76117 8.27797,14.11455 8.61771,14.11862 0.33974,0.004 4.5235,-6.5176 9.29726,-14.4926 l 8.67955,-14.5 8.45274,0 c 4.64901,0 8.45274,0.17526 8.45274,0.38946 0,0.2142 -6.075,9.8895 -13.5,21.50066 l -13.5,21.11121 0,13.49933 0,13.49934 -8,0 -8,0 0,-13.52985 z m 146,-14.89533 0,-28.50932 -11.12667,-0.28275 -11.12667,-0.28275 0.001,-6 10e-4,-6 29.62534,-0.26488 29.62534,-0.26488 0,6.51488 0,6.51488 -10.48443,0 -10.48442,0 -0.26558,28.25 -0.26557,28.25 -7.75,0.29206 -7.75,0.29207 0,-28.50931 z m 32.25362,27.21432 c 0.27371,-0.70903 6.92731,-16.47664 14.78579,-35.03914 l 14.28814,-33.75 9.62701,0 9.627,0 12.80841,31.75 c 15.6389,38.76636 14.61003,36.13707 14.61003,37.33599 0,0.60158 -3.39856,0.87818 -8.63686,0.70294 l -8.63685,-0.28893 -2.9576,-7.77619 -2.9576,-7.77619 -14.53153,0.27619 -14.53153,0.27619 -2.74678,7.5 -2.74678,7.5 -9.24924,0.28914 c -7.22778,0.22595 -9.14048,0.007 -8.75161,-1 z m 47.95706,-26.33315 c 0.679,-0.679 -8.3143,-24.45599 -9.25012,-24.45599 -0.54462,0 -5.03095,10.94015 -9.53433,23.25 -0.58105,1.58829 0.23211,1.75 8.80011,1.75 5.19218,0 9.68513,-0.24481 9.98434,-0.54401 z M 276.49999,342.83826 C 205.82411,336.5283 150.09149,305.90664 128.50118,261.522 c -7.31914,-15.04643 -8.87202,-22.3382 -8.87202,-41.65983 0,-19.96151 1.57113,-26.8816 9.8762,-43.5 20.5546,-41.12963 66.89307,-68.1077 132.49463,-77.137823 17.31183,-2.382992 56.64599,-2.386347 74,-0.0063 48.60862,6.666483 85.20659,22.667843 111.06964,48.561843 15.48171,15.50024 23.69937,29.2618 28.68208,48.03196 3.55802,13.40323 3.75284,34.49674 0.43457,47.05034 -3.20259,12.11596 -11.80368,28.78626 -20.23258,39.21399 -24.96153,30.88093 -70.16927,52.714 -122.95371,59.3805 -14.55391,1.83811 -43.46758,2.54514 -56.5,1.3816 z m 58,-3.47903 c 59.20797,-7.83088 108.09737,-34.9906 129.87629,-72.15067 4.91948,-8.39381 9.23843,-19.7454 11.20478,-29.44975 2.27287,-11.21704 1.50881,-32.12746 -1.56743,-42.89664 -13.94336,-48.81242 -63.98449,-83.3897 -135.51364,-93.63683 -18.13154,-2.597495 -61.65372,-2.61441 -79,-0.0307 -46.20186,6.8817 -81.40215,22.05054 -105.84755,45.61283 -16.05375,15.4738 -25.32705,30.66616 -30.24782,49.55471 -3.5332,13.56232 -3.74598,31.69958 -0.52792,45 13.0896,54.09999 75.54267,93.7957 157.12329,99.86892 10.66879,0.79423 42.64619,-0.30406 54.5,-1.87186 z m -55,-0.0863 c -25.05584,-2.47429 -41.63321,-5.76155 -60.5,-11.99703 -39.80158,-13.15443 -71.03396,-36.89433 -85.40097,-64.91374 -4.98528,-9.72259 -4.50518,-10.54166 0.76169,-1.29949 6.41736,11.261 10.64771,16.62944 20.44182,25.94133 14.39271,13.68408 34.10683,25.51267 54.69746,32.81877 69.52989,24.67107 156.42611,17.40389 210.29615,-17.58719 11.58292,-7.52364 19.70917,-14.23651 26.66012,-22.02321 5.9811,-6.70024 22.54373,-30.67793 22.54373,-32.63653 0,-0.57585 0.22617,-0.82085 0.50259,-0.54442 0.85714,0.85714 -3.32032,11.81261 -7.04175,18.46717 -1.94915,3.48539 -6.14325,9.60555 -9.32022,13.60032 -24.10022,30.30411 -68.11482,51.73697 -120.64062,58.74584 -8.29263,1.10654 -45.97439,2.12191 -53,1.42814 z m -5,-14.49489 c -4.4,-0.44999 -12.275,-1.57727 -17.5,-2.50509 l -9.5,-1.68694 5.46216,-1.71127 5.46216,-1.71127 -5.46216,-1.26883 c -50.35744,-11.69788 -88.07943,-40.30866 -99.58599,-75.53248 -1.25768,-3.84999 -2.30682,-6.26425 -2.33143,-5.36501 -0.0246,0.89924 -1.11252,2.33463 -2.41759,3.18974 -1.78284,1.16816 -2.27616,2.25351 -1.984,4.36501 0.22366,1.61643 -0.24779,0.89861 -1.10978,-1.68974 -4.59726,-13.80444 -4.06877,-31.08541 1.47871,-48.35175 2.84638,-8.85926 10.2801,-23.3568 13.77618,-26.86682 1.61699,-1.62344 1.7265,-1.51447 1.97833,1.96853 0.14662,2.02791 1.18683,5.5881 2.31159,7.91154 2.46432,5.0906 12.46596,14.57983 20.24056,19.20358 13.57481,8.07327 39.69106,16.33193 60.71683,19.20027 5.20544,0.71012 9.6537,1.4377 9.88504,1.61684 0.23134,0.17913 -0.62607,1.43984 -1.90535,2.80156 -2.25617,2.40159 -2.30657,2.844 -1.67997,14.74606 0.88567,16.82277 5.13348,41.28903 6.55763,37.77019 1.37715,-3.40271 2.9427,-1.45257 5.0559,6.29792 6.35529,23.30903 17.22753,40.93686 28.0432,45.46816 16.07441,6.73448 33.23005,-12.61672 42.51453,-47.95549 1.58918,-6.0488 1.90627,-6.54062 3.31114,-5.13576 1.40486,1.40486 1.62305,1.36602 2.27842,-0.40561 2.20291,-5.95502 5.90389,-33.67543 5.90389,-44.22019 0,-3.46906 -0.53597,-5.2241 -2,-6.54903 -1.1,-0.99549 -2,-2.13211 -2,-2.52582 0,-0.39372 2.6122,-1.01138 5.80488,-1.37259 10.17127,-1.15075 28.76253,-5.37429 39.55849,-8.98684 28.85056,-9.654 47.5195,-24.86114 47.67259,-38.83263 l 0.036,-3.28212 2.46878,3 c 3.72854,4.53083 12.2619,22.09046 14.57895,30 1.32759,4.53189 2.24389,11.30384 2.5988,19.20647 0.46486,10.35076 0.21294,13.65735 -1.65711,21.75 -1.21292,5.24894 -2.41831,9.54353 -2.67864,9.54353 -0.26034,0 -0.18408,-1.54185 0.16945,-3.42633 0.51401,-2.73994 0.2226,-3.7861 -1.45469,-5.22224 -1.15361,-0.98775 -2.1176,-2.7084 -2.14221,-3.82367 -0.0246,-1.11527 -1.07467,1.12225 -2.33348,4.97224 -11.52394,35.24542 -43.75389,61.02024 -93.68395,74.92058 -6.8408,1.90445 -11.53783,3.49569 -10.43783,3.53609 1.1,0.0404 3.7515,0.68316 5.89222,1.42836 l 3.89222,1.35492 -8.89222,1.60983 c -19.17391,3.47122 -47.43891,4.55549 -66.89222,2.56605 z m -0.5,-8.39641 c 0,-0.26432 -1.55582,-2.91274 -3.45739,-5.88536 -10.35624,-16.18941 -18.21009,-46.15229 -20.15755,-76.90228 -0.62499,-9.86832 -0.8576,-10.80334 -2.78352,-11.18877 -1.15585,-0.23131 -8.04118,-1.5863 -15.30074,-3.01108 -29.67373,-5.82386 -54.74463,-17.31889 -66.7462,-30.60318 -3.64873,-4.03871 -3.91361,-4.15825 -5.22872,-2.35974 -0.76191,1.04197 -2.55849,5.5027 -3.9924,9.91273 -3.48372,10.7143 -4.33481,27.91984 -1.91836,38.78134 6.75987,30.38428 36.08304,58.091 76.2928,72.0871 14.88838,5.18226 43.29208,11.19815 43.29208,9.16919 z m 69.25123,-2.60431 c 20.66497,-4.13986 42.43507,-12.97341 59.24877,-24.04105 10.54203,-6.9393 24.85501,-21.3639 30.9389,-31.18016 2.66091,-4.29334 6.22867,-11.71834 7.92835,-16.5 2.90099,-8.16127 3.08857,-9.55162 3.06168,-22.6939 -0.0267,-13.07323 -0.24281,-14.64296 -3.26376,-23.7126 -1.77931,-5.34193 -3.66546,-9.97856 -4.19143,-10.30364 -0.52598,-0.32507 -3.32275,1.80747 -6.21503,4.73898 -8.75506,8.87379 -20.85323,15.93006 -37.25871,21.73119 -10.83981,3.83306 -30.32763,8.70098 -38.56255,9.63266 -3.29021,0.37224 -6.1802,0.99716 -6.42219,1.38871 -0.24199,0.39155 -0.92001,6.74479 -1.50672,14.11831 -2.4208,30.42389 -9.07961,55.70237 -19.01027,72.16762 -2.19905,3.64607 -3.99827,6.92996 -3.99827,7.29754 0,0.81505 6.3158,-0.0523 19.25123,-2.64365 z M 150.60416,229.133 c -0.33229,-0.33229 -0.56864,0.25834 -0.52522,1.3125 0.048,1.16495 0.28494,1.4019 0.60417,0.60417 0.28887,-0.72188 0.25334,-1.58438 -0.0789,-1.91667 z m 143.57666,49.14327 c -7.12702,-4.99195 -13.98371,-25.64649 -15.74006,-47.4141 -0.37721,-4.675 -1.23725,-9.175 -1.9112,-10 -0.67395,-0.825 -1.47584,-1.95 -1.78197,-2.5 -0.36444,-0.65475 8.00384,-1 24.23797,-1 l 24.79459,0 -1.81827,2.55353 c -1.22635,1.72225 -2.1836,5.95428 -2.94047,13 -3.57661,33.29463 -14.24745,52.7803 -24.84059,45.36057 z m 10.07774,-3.1641 c 3.18017,-3.3218 7.0648,-11.85011 9.26465,-20.33959 1.80002,-6.94653 4.76501,-27.95551 4.04672,-28.67379 -0.25237,-0.25238 -8.69634,-0.42687 -18.76439,-0.38776 l -18.30555,0.0711 0.22334,6.79001 c 0.28092,8.54049 3.71152,24.85729 6.90171,32.82624 4.72725,11.80846 11.07769,15.51704 16.63352,9.71378 z m -47.25996,-84.75 c -0.20056,-3.22368 -3.06886,-4.44105 -15.06078,-6.39209 -39.16717,-6.37238 -57.99702,-19.4265 -48.40662,-33.55875 l 2.5312,-3.72994 -5.93525,0.34039 c -5.38358,0.30876 -5.84845,0.17864 -5.00126,-1.39982 0.5137,-0.95712 3.28302,-3.49627 6.15405,-5.64255 26.47897,-19.79477 89.00726,-30.97896 138.12473,-24.70584 35.02527,4.47332 65.7451,14.72506 78.50712,26.19921 2.79851,2.5161 5.08881,4.87053 5.08956,5.23206 7.5e-4,0.36154 -2.46556,0.50369 -5.4807,0.3159 l -5.48207,-0.34143 2.58551,4.62599 c 3.34727,5.98891 2.68583,10.09564 -2.50489,15.55221 -7.00408,7.36282 -22.50517,13.11358 -45.94541,17.04531 -11.0968,1.86131 -12.93437,2.44813 -14.76794,4.716 l -2.09414,2.59017 -0.70456,-6.9234 c -0.38751,-3.80788 -0.91034,-8.04842 -1.16184,-9.42342 -0.25151,-1.375 -0.19209,-1.9375 0.13203,-1.25 0.32412,0.6875 1.22682,1.25 2.00598,1.25 0.77917,0 1.41667,0.52501 1.41667,1.16667 0,0.64167 0.26232,0.90435 0.58293,0.58374 1.8188,-1.8188 -5.88861,-28.5058 -11.33581,-39.25041 -8.4594,-16.68615 -14.57678,-20.8534 -30.74712,-20.94541 -12.05321,-0.0686 -16.90678,1.50298 -22.50998,7.2886 -7.76717,8.02004 -15.8737,25.96541 -19.48534,43.13457 -2.12602,10.10672 -2.00865,10.85808 1.16172,7.43719 l 2.66641,-2.8771 -0.6332,2.52286 c -0.34826,1.38757 -0.93325,5.20405 -1.29999,8.48108 -0.58593,5.23573 -2.23114,10.68879 -2.40101,7.95821 z m -2.62219,-18.33599 c 2.97434,-16.15077 9.53549,-33.31592 16.76174,-43.85176 1.57975,-2.30327 2.4978,-4.4192 2.04012,-4.70206 -1.13401,-0.70086 -18.66427,1.98869 -29.67828,4.55333 -28.9182,6.73368 -50.5,19.31918 -50.5,29.44925 0,5.22543 3.56584,9.38587 11.71449,13.66786 11.84047,6.222 44.26278,14.07371 46.86406,11.34907 0.5932,-0.62133 1.85224,-5.33089 2.79787,-10.46569 z m 108.54332,8.65743 c 28.94668,-5.59943 44.28252,-14.9108 41.67422,-25.3031 -2.33299,-9.29536 -22.82309,-20.62367 -48.59396,-26.866 -11.04713,-2.67589 -30.17928,-5.77691 -30.95709,-5.01767 -0.2514,0.2454 0.32445,1.66549 1.27967,3.15576 7.42631,11.58604 14.12613,29.41452 17.17736,45.70957 0.92688,4.95 1.85145,9.55468 2.05459,10.23262 0.40284,1.34436 0.71046,1.31051 17.36521,-1.91118 z m -83.14198,6.62299 c -0.81256,-0.81256 2.68364,-15.98616 5.26801,-22.86324 3.02832,-8.05846 9.08832,-14.58119 13.54679,-14.58119 7.00032,0 13.22084,9.13056 17.42826,25.5814 1.08855,4.25619 1.97918,8.79155 1.97918,10.07857 l 0,2.34003 -18.83333,0 c -10.35834,0 -19.08334,-0.25 -19.38891,-0.55557 z m 36.21523,-2.19443 c -0.004,-0.41249 -0.87473,-4.34999 -1.9353,-8.75 -5.17022,-21.44993 -13.71158,-30.22296 -21.26098,-21.83763 -2.59301,2.88012 -6.84876,12.77294 -8.91315,20.71929 -3.01224,11.59486 -4.40242,10.61834 15.11644,10.61834 9.35,0 16.99685,-0.3375 16.99299,-0.75 z m 132.412,-29.5 -1.90499,-2.25 2.25,1.90499 c 1.2375,1.04775 2.25,2.06025 2.25,2.25 0,0.80026 -0.80479,0.20946 -2.59501,-1.90499 z m -9.48068,-9.5 -2.42431,-2.75 2.75,2.42432 c 1.5125,1.33337 2.75,2.57087 2.75,2.75 0,0.78427 -0.8098,0.14597 -3.07569,-2.42432 z"
         id="path3002"
         inkscape:connector-curvature="0" />
      <path
         style="fill:#b50518"
         d="m 180.23014,444.3711 c -7.44935,-2.0894 -10.87469,-4.05953 -16.79797,-9.66152 -9.68793,-9.16244 -13.67165,-23.63209 -9.99153,-36.29122 2.18351,-7.51102 5.14691,-12.10094 11.50145,-17.81421 15.92009,-14.31354 40.76797,-11.55188 53.95359,5.99651 7.82753,10.41747 9.34548,25.64943 3.73106,37.43949 -7.35132,15.43748 -26.72312,24.72707 -42.3966,20.33095 z m 17.37383,-14.55927 c 19.60627,-9.49123 14.36293,-42.96101 -7.00786,-44.73325 -16.83373,-1.39598 -27.93199,18.44393 -19.53005,34.91309 5.45097,10.68479 16.38998,14.73269 26.53791,9.82016 z m 129.89602,14.70013 c -11.37783,-2.95311 -20.6279,-10.42234 -25.32982,-20.45329 -2.3358,-4.98313 -2.67018,-6.94879 -2.67018,-15.6965 0,-8.74771 0.33438,-10.71337 2.67018,-15.6965 5.07201,-10.82049 15.35249,-18.54093 27.66106,-20.7729 16.14299,-2.92728 32.62341,6.03703 39.9887,21.75133 2.28611,4.87756 2.68006,7.04409 2.68006,14.7391 0,8.17034 -0.30875,9.64819 -3.27411,15.67169 -7.78076,15.80496 -25.73507,24.60747 -41.72589,20.45707 z m 15.1849,-13.71112 c 3.82574,-1.44236 9.04665,-6.59419 11.59205,-11.43867 1.55448,-2.95853 2.1017,-5.82258 2.1017,-11 0,-7.98956 -2.05593,-12.94838 -7.54102,-18.18867 -13.31664,-12.7223 -33.74984,-1.71031 -33.74984,18.18867 0,16.03151 14.12633,27.51735 27.59711,22.43867 z M 110.66666,443.1955 c -0.36667,-0.36666 -0.66667,-13.19166 -0.66667,-28.5 l 0,-27.83333 -11.047715,0 -11.047718,0 0.297718,-6.25 0.297717,-6.25 29.499998,0 29.5,0 0,6 0,6 -10.75,0.28383 -10.75,0.28384 0,28.46616 0,28.46617 -7.33333,0 c -4.03333,0 -7.63333,-0.3 -8,-0.66667 z m 143.33333,-12.86318 0,-13.52985 -13.49463,-21.22015 -13.49463,-21.22015 8.16104,-0.29313 c 4.48857,-0.16122 8.64866,-0.1021 9.24463,0.13138 0.59597,0.23348 4.68359,6.77456 9.08359,14.53573 4.4,7.76117 8.27797,14.11455 8.61771,14.11862 0.33974,0.004 4.5235,-6.5176 9.29726,-14.4926 l 8.67955,-14.5 8.45274,0 c 4.64901,0 8.45274,0.17526 8.45274,0.38946 0,0.2142 -6.075,9.8895 -13.5,21.50066 l -13.5,21.11121 0,13.49933 0,13.49934 -8,0 -8,0 0,-13.52985 z m 146,-14.89533 0,-28.50932 -11.12667,-0.28275 -11.12667,-0.28275 0.001,-6 10e-4,-6 29.62534,-0.26488 29.62534,-0.26488 0,6.51488 0,6.51488 -10.48443,0 -10.48442,0 -0.26558,28.25 -0.26557,28.25 -7.75,0.29206 -7.75,0.29207 0,-28.50931 z m 32.25362,27.21432 c 0.27371,-0.70903 6.92731,-16.47664 14.78579,-35.03914 l 14.28814,-33.75 9.62701,0 9.627,0 12.80841,31.75 c 15.6389,38.76636 14.61003,36.13707 14.61003,37.33599 0,0.60158 -3.39856,0.87818 -8.63686,0.70294 l -8.63685,-0.28893 -2.9576,-7.77619 -2.9576,-7.77619 -14.53153,0.27619 -14.53153,0.27619 -2.74678,7.5 -2.74678,7.5 -9.24924,0.28914 c -7.22778,0.22595 -9.14048,0.007 -8.75161,-1 z m 47.95706,-26.33315 c 0.679,-0.679 -8.3143,-24.45599 -9.25012,-24.45599 -0.54462,0 -5.03095,10.94015 -9.53433,23.25 -0.58105,1.58829 0.23211,1.75 8.80011,1.75 5.19218,0 9.68513,-0.24481 9.98434,-0.54401 z M 282.49999,342.81068 c -70.21581,-3.7358 -130.28599,-35.0107 -152.91413,-79.61308 -15.29499,-30.14798 -13.82245,-64.73601 4.02201,-94.47135 9.76067,-16.26483 29.7953,-34.4379 50.26888,-45.59806 41.76235,-22.76467 104.70948,-31.453101 161.09255,-22.23518 70.44221,11.51641 117.78641,46.23159 130.71959,95.85028 3.12043,11.97167 3.55711,31.32204 0.96724,42.8614 -9.09938,40.54311 -44.11278,73.58551 -96.65614,91.21511 -17.9375,6.01848 -40.60855,10.44706 -59,11.52512 -19.23759,1.12764 -24.79581,1.19488 -38.5,0.46576 z m 55.5,-3.42263 c 71.6466,-10.79509 123.86361,-47.59225 136.69506,-96.32853 3.61454,-13.72869 3.62604,-32.45111 0.0284,-46.20883 -13.82476,-52.86717 -67.86181,-88.70926 -146.26403,-97.015068 -14.50532,-1.536672 -48.79967,-1.279364 -63.5753,0.476998 -90.13337,10.71406 -148.33866,61.02953 -144.57218,124.97519 3.46462,58.82106 61.63968,104.4472 146.68805,115.04605 15.69226,1.9556 55.24004,1.42877 71,-0.94581 z m -70.5,-21.23511 c -1.65,-0.22528 -8.12243,-1.54386 -14.38318,-2.93021 -49.92646,-11.05548 -87.1559,-38.87655 -98.83832,-73.86056 -2.40468,-7.20099 -2.67149,-9.44818 -2.67149,-22.5 0,-13.21358 0.24946,-15.25411 2.81186,-23 1.54653,-4.675 3.65995,-10.16957 4.6965,-12.21016 1.26156,-2.48356 1.87906,-5.78962 1.86778,-10 l -0.0168,-6.28984 -2.08136,3.25 c -1.14474,1.7875 -2.31391,3.25 -2.59816,3.25 -0.28424,0 0.14117,-1.0125 0.94536,-2.25 0.80419,-1.2375 2.07622,-3.24173 2.82673,-4.45384 1.30591,-2.1091 1.41977,-1.98814 2.64866,2.81375 1.72587,6.7438 6.09473,12.82615 13.58037,18.90666 6.67677,5.42347 22.62936,13.69774 31.94996,16.57175 3.15583,0.9731 5.56214,1.94502 5.34735,2.15979 -0.21478,0.21478 -2.26969,-0.17251 -4.56646,-0.86064 -3.38128,-1.01305 -4.32755,-1.00588 -4.97252,0.0377 -0.4852,0.78506 -1.72481,1.05095 -3.17139,0.68021 -1.30617,-0.33473 -0.34985,0.32332 2.12515,1.46233 7.77793,3.57949 27.39129,8.6375 44.16748,11.39017 l 3.66747,0.60176 0.615,7.72017 c 2.05958,25.85449 4.41411,39.40566 9.76829,56.22017 3.3773,10.60625 10.29455,25.07911 14.21107,29.73363 1.41388,1.6803 2.57069,3.32763 2.57069,3.66073 0,0.63917 -5.45368,0.58536 -10.5,-0.10359 z m 6.5,-1.62007 c 0,-0.18113 -2.00913,-3.85488 -4.46473,-8.16391 -10.31388,-18.09851 -16.75799,-44.02192 -19.09729,-76.8248 -0.38033,-5.33323 -1.08512,-8.94078 -1.78341,-9.12868 -0.63502,-0.17087 -7.37214,-1.50857 -14.9714,-2.97267 -30.77298,-5.92881 -53.4204,-16.04713 -66.92398,-29.90001 l -5.74081,-5.88932 -2.0983,4.85435 c -6.20743,14.36066 -8.13984,34.88092 -4.53762,48.18499 10.09285,37.27587 48.3887,66.64838 101.11754,77.55609 10.78468,2.23096 18.5,3.18347 18.5,2.28395 z m 48.42252,-2.26579 c 12.56677,-16.43402 23.53249,-56.70858 23.56928,-86.56456 l 0.008,-6.65965 7.25,-1.17179 c 12.05556,-1.94853 24.70243,-5.08263 35.25,-8.73555 9.42954,-3.26571 13.73967,-5.24327 8.75,-4.01463 -1.52939,0.3766 -2.25,0.10361 -2.25,-0.85235 2e-4,-0.77351 -0.54304,-1.40638 -1.20699,-1.40638 -0.66396,0 4.39854,-2.76167 11.25,-6.13704 10.78128,-5.3114 13.48784,-7.16658 20.11813,-13.78972 6.56292,-6.55585 7.9067,-8.49811 9.3757,-13.55129 1.59996,-5.50365 1.8117,-5.76882 3.16234,-3.96027 2.60574,3.48915 3.65998,6.20574 1.33432,3.43832 l -2.10092,-2.5 0.3703,7 c 0.24912,4.70935 1.23785,9.00302 3.02145,13.121 4.58988,10.59713 6.0657,17.94759 6.09947,30.379 0.0625,22.99504 -8.56975,41.48574 -27.97068,59.91473 -21.35585,20.28597 -58.69917,36.24888 -92.86701,39.69728 l -6.91408,0.6978 3.75069,-4.9049 z m 19.10167,0.10959 c 15.66253,-3.17131 28.10517,-7.29969 42.07809,-13.96122 14.12849,-6.7357 24.59142,-13.80735 34.66938,-23.43222 9.50738,-9.07993 15.53203,-17.25014 20.25007,-27.46173 5.38469,-11.65443 6.77181,-19.10185 6.17613,-33.15933 -0.50556,-11.93078 -1.84124,-18.19217 -5.92118,-27.7572 l -2.02917,-4.75721 -7.26102,6.89726 c -8.29563,7.88002 -17.36757,13.49797 -30.11759,18.65078 -9.84641,3.97934 -30.83242,9.67897 -42.3689,11.50702 -4.125,0.65364 -8.0625,1.642 -8.75,2.19635 -0.76542,0.61717 -1.25,3.4955 -1.25,7.42487 0,8.85316 -1.73239,23.9337 -4.10311,35.71774 -2.96906,14.75819 -7.45191,27.89607 -13.49192,39.54078 -2.97273,5.73122 -5.40497,10.56873 -5.40497,10.75 0,0.88403 6.39774,0.097 17.52419,-2.15589 z m -46.38071,-35.89213 c -7.43868,-4.12494 -13.96577,-23.37275 -16.57303,-48.87237 l -0.58792,-5.75 20.50873,0 20.50874,0 -0.006,4.25 c -0.009,6.63558 -2.66615,22.53726 -5.05435,30.25 -2.94271,9.50354 -6.22818,15.72347 -9.96731,18.86975 -3.47232,2.92176 -5.34089,3.18687 -8.82896,1.25263 z m 6.73274,-1.05836 c 3.318,-1.7158 8.0835,-10.30245 10.98975,-19.80172 2.20651,-7.21211 5.5094,-27.57437 4.94675,-30.49665 -0.30974,-1.60872 -2.00517,-1.77362 -19.07634,-1.85548 l -18.73638,-0.0898 0,4.16363 c 0,6.16726 2.88484,21.96475 5.57264,30.51605 3.46719,11.03089 8.25458,17.8848 13.22702,18.9366 0.16481,0.0349 1.54926,-0.5828 3.07656,-1.37259 z m 86.62378,-71.56401 c 2.74909,-1.18132 4.32797,-1.18132 2.5,0 -0.825,0.53316 -2.175,0.94464 -3,0.9144 -0.98906,-0.0362 -0.81874,-0.34772 0.5,-0.9144 z m -108.5,-19.87177 c 0,-4.12082 5.06024,-21.46824 7.65055,-26.2275 7.35078,-13.5058 15.73521,-13.03415 22.76799,1.28077 3.40355,6.92776 8.04498,24.2595 6.96476,26.00733 -0.27573,0.44615 -8.79978,0.81117 -18.94232,0.81117 -17.35322,0 -18.44098,-0.1104 -18.44098,-1.87177 z m 35.58115,-0.37492 c 1.25063,-1.25251 -3.33178,-17.8537 -6.80844,-24.66569 -5.88587,-11.53247 -10.97036,-12.78388 -17.44594,-4.29382 -3.30776,4.33675 -7.94128,17.11463 -8.9957,24.80742 -0.48655,3.54978 -0.28459,4.27944 1.29629,4.68335 2.98185,0.76186 31.1299,0.29386 31.95379,-0.53126 z m -79.547,-2.88546 c -12.58485,-2.33736 -26.58838,-6.89388 -33.71094,-10.969 -20.80315,-11.90235 -11.51363,-28.07785 23.49049,-40.90309 l 7.6863,-2.8162 -8.5,0.49026 c -4.675,0.26965 -10.49266,1.12925 -12.92814,1.91022 -5.20876,1.67028 -6.25241,1.755 -3.75995,0.30522 2.93959,-1.70986 18.43151,-6.76014 28.97735,-9.44644 26.65303,-6.78924 62.58188,-9.19941 89.21074,-5.98441 15.30595,1.84794 33.80405,5.47832 44.2958,8.69335 8.68981,2.66286 22.44776,7.94202 21.96242,8.42736 -0.20759,0.20758 -2.60061,-0.45353 -5.31782,-1.46915 -2.74784,-1.02707 -8.93463,-2.08205 -13.9404,-2.37715 l -9,-0.53057 7.74512,2.8283 c 8.8278,3.22366 22.05161,10.05837 25.75488,13.31137 8.59443,7.54944 10.2506,13.88576 5.46878,20.92284 -4.69562,6.91022 -23.30678,14.32971 -45.96878,18.32583 -13.8089,2.435 -12.98469,2.8683 -14.90657,-7.83659 -2.55694,-14.24222 -6.27974,-26.37281 -11.12489,-36.25 -9.64026,-19.65234 -14.15826,-22.89731 -31.96854,-22.96079 -14.90209,-0.0531 -18.82358,1.47385 -25.1203,9.7814 -8.72614,11.5128 -15.4763,28.97986 -19.10206,49.42939 l -1.64005,9.25 -3.5688,-0.0942 c -1.96283,-0.0518 -8.27842,-0.96888 -14.03464,-2.03797 z m 18.03946,-8.41544 c 3.35096,-17.61513 9.51381,-34.47221 16.39042,-44.83225 2.08221,-3.13699 3.51552,-5.97394 3.18512,-6.30433 -0.95496,-0.95497 -22.08349,2.58012 -34.43763,5.76187 -13.92434,3.58615 -26.48834,8.71069 -35.24582,14.37587 -9.90985,6.41065 -13.13946,11.80146 -10.64576,17.76972 3.66059,8.76104 19.10821,15.80437 45.68006,20.82779 13.81529,2.61178 13.0587,2.99318 15.07361,-7.59867 z m 109.92639,6.43526 c 25.91715,-5.20606 41,-13.87995 41,-23.57839 0,-7.27203 -13.13058,-17.02583 -32,-23.77059 -14.61428,-5.22379 -45.41441,-11.63667 -48.05402,-10.0053 -0.52603,0.3251 0.44088,2.62199 2.14868,5.1042 6.82437,9.91887 12.74699,25.98837 16.35035,44.36241 0.91682,4.675 1.85537,9.06964 2.08567,9.76587 0.47547,1.4374 3.4889,1.13096 18.46932,-1.8782 z m -210,-3.88767 c 0.5887,-1.09999 1.29537,-2 1.57037,-2 0.275,0 0.0183,0.90001 -0.57037,2 -0.5887,1.1 -1.29537,2 -1.57037,2 -0.275,0 -0.0183,-0.9 0.57037,-2 z"
         id="path3000"
         inkscape:connector-curvature="0" />
      <path
         style="fill:#201f1f"
         d="m 282.49999,342.81068 c -70.21581,-3.7358 -130.28599,-35.0107 -152.91413,-79.61308 -15.29499,-30.14798 -13.82245,-64.73601 4.02201,-94.47135 9.76067,-16.26483 29.7953,-34.4379 50.26888,-45.59806 41.76235,-22.76467 104.70948,-31.453101 161.09255,-22.23518 70.44221,11.51641 117.78641,46.23159 130.71959,95.85028 3.12043,11.97167 3.55711,31.32204 0.96724,42.8614 -9.09938,40.54311 -44.11278,73.58551 -96.65614,91.21511 -17.9375,6.01848 -40.60855,10.44706 -59,11.52512 -19.23759,1.12764 -24.79581,1.19488 -38.5,0.46576 z m 55.5,-3.42263 c 71.6466,-10.79509 123.86361,-47.59225 136.69506,-96.32853 3.61454,-13.72869 3.62604,-32.45111 0.0284,-46.20883 -13.82476,-52.86717 -67.86181,-88.70926 -146.26403,-97.015068 -14.50532,-1.536672 -48.79967,-1.279364 -63.5753,0.476998 -90.13337,10.71406 -148.33866,61.02953 -144.57218,124.97519 3.46462,58.82106 61.63968,104.4472 146.68805,115.04605 15.69226,1.9556 55.24004,1.42877 71,-0.94581 z m -70.5,-21.23511 c -1.65,-0.22528 -8.12243,-1.54386 -14.38318,-2.93021 -49.92646,-11.05548 -87.1559,-38.87655 -98.83832,-73.86056 -2.40468,-7.20099 -2.67149,-9.44818 -2.67149,-22.5 0,-13.21358 0.24946,-15.25411 2.81186,-23 1.54653,-4.675 3.65995,-10.16957 4.6965,-12.21016 1.26156,-2.48356 1.87906,-5.78962 1.86778,-10 l -0.0168,-6.28984 -2.08136,3.25 c -1.14474,1.7875 -2.31391,3.25 -2.59816,3.25 -0.28424,0 0.14117,-1.0125 0.94536,-2.25 0.80419,-1.2375 2.07622,-3.24173 2.82673,-4.45384 1.30591,-2.1091 1.41977,-1.98814 2.64866,2.81375 1.72587,6.7438 6.09473,12.82615 13.58037,18.90666 6.67677,5.42347 22.62936,13.69774 31.94996,16.57175 3.15583,0.9731 5.56214,1.94502 5.34735,2.15979 -0.21478,0.21478 -2.26969,-0.17251 -4.56646,-0.86064 -3.38128,-1.01305 -4.32755,-1.00588 -4.97252,0.0377 -0.4852,0.78506 -1.72481,1.05095 -3.17139,0.68021 -1.30617,-0.33473 -0.34985,0.32332 2.12515,1.46233 7.77793,3.57949 27.39129,8.6375 44.16748,11.39017 l 3.66747,0.60176 0.615,7.72017 c 2.05958,25.85449 4.41411,39.40566 9.76829,56.22017 3.3773,10.60625 10.29455,25.07911 14.21107,29.73363 1.41388,1.6803 2.57069,3.32763 2.57069,3.66073 0,0.63917 -5.45368,0.58536 -10.5,-0.10359 z m 6.5,-1.62007 c 0,-0.18113 -2.00913,-3.85488 -4.46473,-8.16391 -10.31388,-18.09851 -16.75799,-44.02192 -19.09729,-76.8248 -0.38033,-5.33323 -1.08512,-8.94078 -1.78341,-9.12868 -0.63502,-0.17087 -7.37214,-1.50857 -14.9714,-2.97267 -30.77298,-5.92881 -53.4204,-16.04713 -66.92398,-29.90001 l -5.74081,-5.88932 -2.0983,4.85435 c -6.20743,14.36066 -8.13984,34.88092 -4.53762,48.18499 10.09285,37.27587 48.3887,66.64838 101.11754,77.55609 10.78468,2.23096 18.5,3.18347 18.5,2.28395 z m 48.42252,-2.26579 c 12.56677,-16.43402 23.53249,-56.70858 23.56928,-86.56456 l 0.008,-6.65965 7.25,-1.17179 c 12.05556,-1.94853 24.70243,-5.08263 35.25,-8.73555 9.42954,-3.26571 13.73967,-5.24327 8.75,-4.01463 -1.52939,0.3766 -2.25,0.10361 -2.25,-0.85235 2e-4,-0.77351 -0.54304,-1.40638 -1.20699,-1.40638 -0.66396,0 4.39854,-2.76167 11.25,-6.13704 10.78128,-5.3114 13.48784,-7.16658 20.11813,-13.78972 6.56292,-6.55585 7.9067,-8.49811 9.3757,-13.55129 1.59996,-5.50365 1.8117,-5.76882 3.16234,-3.96027 2.60574,3.48915 3.65998,6.20574 1.33432,3.43832 l -2.10092,-2.5 0.3703,7 c 0.24912,4.70935 1.23785,9.00302 3.02145,13.121 4.58988,10.59713 6.0657,17.94759 6.09947,30.379 0.0625,22.99504 -8.56975,41.48574 -27.97068,59.91473 -21.35585,20.28597 -58.69917,36.24888 -92.86701,39.69728 l -6.91408,0.6978 3.75069,-4.9049 z m 19.10167,0.10959 c 15.66253,-3.17131 28.10517,-7.29969 42.07809,-13.96122 14.12849,-6.7357 24.59142,-13.80735 34.66938,-23.43222 9.50738,-9.07993 15.53203,-17.25014 20.25007,-27.46173 5.38469,-11.65443 6.77181,-19.10185 6.17613,-33.15933 -0.50556,-11.93078 -1.84124,-18.19217 -5.92118,-27.7572 l -2.02917,-4.75721 -7.26102,6.89726 c -8.29563,7.88002 -17.36757,13.49797 -30.11759,18.65078 -9.84641,3.97934 -30.83242,9.67897 -42.3689,11.50702 -4.125,0.65364 -8.0625,1.642 -8.75,2.19635 -0.76542,0.61717 -1.25,3.4955 -1.25,7.42487 0,8.85316 -1.73239,23.9337 -4.10311,35.71774 -2.96906,14.75819 -7.45191,27.89607 -13.49192,39.54078 -2.97273,5.73122 -5.40497,10.56873 -5.40497,10.75 0,0.88403 6.39774,0.097 17.52419,-2.15589 z m -46.38071,-35.89213 c -7.43868,-4.12494 -13.96577,-23.37275 -16.57303,-48.87237 l -0.58792,-5.75 20.50873,0 20.50874,0 -0.006,4.25 c -0.009,6.63558 -2.66615,22.53726 -5.05435,30.25 -2.94271,9.50354 -6.22818,15.72347 -9.96731,18.86975 -3.47232,2.92176 -5.34089,3.18687 -8.82896,1.25263 z m 6.73274,-1.05836 c 3.318,-1.7158 8.0835,-10.30245 10.98975,-19.80172 2.20651,-7.21211 5.5094,-27.57437 4.94675,-30.49665 -0.30974,-1.60872 -2.00517,-1.77362 -19.07634,-1.85548 l -18.73638,-0.0898 0,4.16363 c 0,6.16726 2.88484,21.96475 5.57264,30.51605 3.46719,11.03089 8.25458,17.8848 13.22702,18.9366 0.16481,0.0349 1.54926,-0.5828 3.07656,-1.37259 z m 86.62378,-71.56401 c 2.74909,-1.18132 4.32797,-1.18132 2.5,0 -0.825,0.53316 -2.175,0.94464 -3,0.9144 -0.98906,-0.0362 -0.81874,-0.34772 0.5,-0.9144 z m -108.5,-19.87177 c 0,-4.12082 5.06024,-21.46824 7.65055,-26.2275 7.35078,-13.5058 15.73521,-13.03415 22.76799,1.28077 3.40355,6.92776 8.04498,24.2595 6.96476,26.00733 -0.27573,0.44615 -8.79978,0.81117 -18.94232,0.81117 -17.35322,0 -18.44098,-0.1104 -18.44098,-1.87177 z m 35.58115,-0.37492 c 1.25063,-1.25251 -3.33178,-17.8537 -6.80844,-24.66569 -5.88587,-11.53247 -10.97036,-12.78388 -17.44594,-4.29382 -3.30776,4.33675 -7.94128,17.11463 -8.9957,24.80742 -0.48655,3.54978 -0.28459,4.27944 1.29629,4.68335 2.98185,0.76186 31.1299,0.29386 31.95379,-0.53126 z m -79.547,-2.88546 c -12.58485,-2.33736 -26.58838,-6.89388 -33.71094,-10.969 -20.80315,-11.90235 -11.51363,-28.07785 23.49049,-40.90309 l 7.6863,-2.8162 -8.5,0.49026 c -4.675,0.26965 -10.49266,1.12925 -12.92814,1.91022 -5.20876,1.67028 -6.25241,1.755 -3.75995,0.30522 2.93959,-1.70986 18.43151,-6.76014 28.97735,-9.44644 26.65303,-6.78924 62.58188,-9.19941 89.21074,-5.98441 15.30595,1.84794 33.80405,5.47832 44.2958,8.69335 8.68981,2.66286 22.44776,7.94202 21.96242,8.42736 -0.20759,0.20758 -2.60061,-0.45353 -5.31782,-1.46915 -2.74784,-1.02707 -8.93463,-2.08205 -13.9404,-2.37715 l -9,-0.53057 7.74512,2.8283 c 8.8278,3.22366 22.05161,10.05837 25.75488,13.31137 8.59443,7.54944 10.2506,13.88576 5.46878,20.92284 -4.69562,6.91022 -23.30678,14.32971 -45.96878,18.32583 -13.8089,2.435 -12.98469,2.8683 -14.90657,-7.83659 -2.55694,-14.24222 -6.27974,-26.37281 -11.12489,-36.25 -9.64026,-19.65234 -14.15826,-22.89731 -31.96854,-22.96079 -14.90209,-0.0531 -18.82358,1.47385 -25.1203,9.7814 -8.72614,11.5128 -15.4763,28.97986 -19.10206,49.42939 l -1.64005,9.25 -3.5688,-0.0942 c -1.96283,-0.0518 -8.27842,-0.96888 -14.03464,-2.03797 z m 18.03946,-8.41544 c 3.35096,-17.61513 9.51381,-34.47221 16.39042,-44.83225 2.08221,-3.13699 3.51552,-5.97394 3.18512,-6.30433 -0.95496,-0.95497 -22.08349,2.58012 -34.43763,5.76187 -13.92434,3.58615 -26.48834,8.71069 -35.24582,14.37587 -9.90985,6.41065 -13.13946,11.80146 -10.64576,17.76972 3.66059,8.76104 19.10821,15.80437 45.68006,20.82779 13.81529,2.61178 13.0587,2.99318 15.07361,-7.59867 z m 109.92639,6.43526 c 25.91715,-5.20606 41,-13.87995 41,-23.57839 0,-7.27203 -13.13058,-17.02583 -32,-23.77059 -14.61428,-5.22379 -45.41441,-11.63667 -48.05402,-10.0053 -0.52603,0.3251 0.44088,2.62199 2.14868,5.1042 6.82437,9.91887 12.74699,25.98837 16.35035,44.36241 0.91682,4.675 1.85537,9.06964 2.08567,9.76587 0.47547,1.4374 3.4889,1.13096 18.46932,-1.8782 z m -210,-3.88767 c 0.5887,-1.09999 1.29537,-2 1.57037,-2 0.275,0 0.0183,0.90001 -0.57037,2 -0.5887,1.1 -1.29537,2 -1.57037,2 -0.275,0 -0.0183,-0.9 0.57037,-2 z"
         id="path2998"
         inkscape:connector-curvature="0" />
    </g>
    <g
       transform="matrix(3.201913,-0.85795001,0.85795001,3.201913,-976.67549,-973.41085)"
       id="g3032">
      <g
         id="g3068"
         transform="matrix(0.96592583,-0.25881905,0.25881905,0.96592583,51.150774,51.703297)">
        <text
           sodipodi:linespacing="125%"
           id="text2985"
           y="500.93362"
           x="128.57143"
           style="font-size:40px;font-style:normal;font-weight:normal;line-height:125%;letter-spacing:0px;word-spacing:0px;fill:#be202e;fill-opacity:1;stroke:none;font-family:Sans"
           xml:space="preserve"><tspan
             style="fill:#be202e;fill-opacity:1;font-family:Crillee;-inkscape-font-specification:Crillee"
             y="500.93362"
             x="128.57143"
             id="tspan2987"
             sodipodi:role="line">Elite Carbody</tspan></text>
        <text
           sodipodi:linespacing="125%"
           id="text2989"
           y="513.69128"
           x="240.77048"
           style="font-size:46.45538712px;font-style:normal;font-weight:normal;line-height:125%;letter-spacing:0px;word-spacing:0px;fill:#000000;fill-opacity:1;stroke:none;font-family:Sans"
           xml:space="preserve"><tspan
             style="font-size:11.61384678px;font-style:normal;font-variant:normal;font-weight:normal;font-stretch:normal;font-family:Crillee;-inkscape-font-specification:Crillee"
             y="513.69128"
             x="240.77048"
             id="tspan2991"
             sodipodi:role="line">accident repair centre</tspan></text>
      </g>
    </g>
  </g>
</svg>
