<?xml version="1.0" encoding="UTF-8" standalone="no"?>
<!-- Created with Inkscape (http://www.inkscape.org/) -->

<svg
   xmlns:dc="http://purl.org/dc/elements/1.1/"
   xmlns:cc="http://creativecommons.org/ns#"
   xmlns:rdf="http://www.w3.org/1999/02/22-rdf-syntax-ns#"
   xmlns:svg="http://www.w3.org/2000/svg"
   xmlns="http://www.w3.org/2000/svg"
   xmlns:xlink="http://www.w3.org/1999/xlink"
   xmlns:sodipodi="http://sodipodi.sourceforge.net/DTD/sodipodi-0.dtd"
   xmlns:inkscape="http://www.inkscape.org/namespaces/inkscape"
   width="815.6723"
   height="207.70753"
   id="svg4040"
   version="1.1"
   inkscape:version="0.48.4 r9939"
   sodipodi:docname="mkbodytecfinalsvgblack.svg">
  <defs
     id="defs4042">
    <linearGradient
       inkscape:collect="always"
       id="linearGradient3829">
      <stop
         style="stop-color:#ffffff;stop-opacity:1;"
         offset="0"
         id="stop3831" />
      <stop
         style="stop-color:#ffffff;stop-opacity:0;"
         offset="1"
         id="stop3833" />
    </linearGradient>
    <linearGradient
       inkscape:collect="always"
       xlink:href="#linearGradient4146"
       id="linearGradient5727"
       gradientUnits="userSpaceOnUse"
       x1="1088.7301"
       y1="613.02771"
       x2="1440.6498"
       y2="613.02771"
       spreadMethod="reflect"
       gradientTransform="matrix(0.51048442,0,0,0.51048442,417.54368,307.20922)" />
    <linearGradient
       id="linearGradient4146">
      <stop
         id="stop5743"
         offset="0"
         style="stop-color:#be0a1e;stop-opacity:1;" />
      <stop
         style="stop-color:#5f058e;stop-opacity:1;"
         offset="0.5"
         id="stop5745" />
      <stop
         style="stop-color:#0000ff;stop-opacity:1;"
         offset="1"
         id="stop5739" />
    </linearGradient>
    <linearGradient
       id="linearGradient5832">
      <stop
         id="stop5834"
         offset="0"
         style="stop-color:#000000;stop-opacity:0.20535715;" />
      <stop
         style="stop-color:#131313;stop-opacity:0.39607843;"
         offset="0.125"
         id="stop5836" />
      <stop
         style="stop-color:#262626;stop-opacity:0.59215686;"
         offset="0.25"
         id="stop5838" />
      <stop
         style="stop-color:#4c4c4c;stop-opacity:0.31764706;"
         offset="0.54479694"
         id="stop5840" />
      <stop
         id="stop5842"
         offset="1"
         style="stop-color:#999999;stop-opacity:0;" />
    </linearGradient>
    <linearGradient
       id="linearGradient5758">
      <stop
         style="stop-color:#000000;stop-opacity:0.20535715;"
         offset="0"
         id="stop5760" />
      <stop
         id="stop5788"
         offset="0.125"
         style="stop-color:#131313;stop-opacity:0.39607843;" />
      <stop
         id="stop5786"
         offset="0.25"
         style="stop-color:#262626;stop-opacity:0.59215686;" />
      <stop
         id="stop5784"
         offset="0.76294315"
         style="stop-color:#4c4c4c;stop-opacity:0.31764706;" />
      <stop
         style="stop-color:#999999;stop-opacity:0;"
         offset="1"
         id="stop5762" />
    </linearGradient>
    <linearGradient
       inkscape:collect="always"
       xlink:href="#linearGradient3829"
       id="linearGradient3835"
       x1="919.0813"
       y1="981.72058"
       x2="1021.4781"
       y2="981.72058"
       gradientUnits="userSpaceOnUse" />
    <linearGradient
       inkscape:collect="always"
       xlink:href="#linearGradient3829"
       id="linearGradient3837"
       x1="641.6922"
       y1="980.53357"
       x2="952.74469"
       y2="980.53357"
       gradientUnits="userSpaceOnUse" />
    <linearGradient
       inkscape:collect="always"
       xlink:href="#linearGradient5758"
       id="linearGradient3943"
       x1="583.3501"
       y1="1042.9202"
       x2="1115.0867"
       y2="1042.9202"
       gradientUnits="userSpaceOnUse"
       gradientTransform="translate(-9.4280907,134.35029)" />
    <linearGradient
       inkscape:collect="always"
       xlink:href="#linearGradient3829"
       id="linearGradient3043"
       gradientUnits="userSpaceOnUse"
       x1="641.6922"
       y1="980.53357"
       x2="952.74469"
       y2="980.53357" />
    <linearGradient
       inkscape:collect="always"
       xlink:href="#linearGradient3829"
       id="linearGradient3045"
       gradientUnits="userSpaceOnUse"
       x1="919.0813"
       y1="981.72058"
       x2="1021.4781"
       y2="981.72058" />
  </defs>
  <sodipodi:namedview
     id="base"
     pagecolor="#ffffff"
     bordercolor="#666666"
     borderopacity="1.0"
     inkscape:pageopacity="0.0"
     inkscape:pageshadow="2"
     inkscape:zoom="0.84852812"
     inkscape:cx="658.09321"
     inkscape:cy="-62.245241"
     inkscape:current-layer="layer1"
     inkscape:document-units="px"
     showgrid="false"
     inkscape:window-width="1440"
     inkscape:window-height="838"
     inkscape:window-x="-8"
     inkscape:window-y="-8"
     inkscape:window-maximized="1"
     fit-margin-top="0"
     fit-margin-left="0"
     fit-margin-right="0"
     fit-margin-bottom="0" />
  <metadata
     id="metadata4045">
    <rdf:RDF>
      <cc:Work
         rdf:about="">
        <dc:format>image/svg+xml</dc:format>
        <dc:type
           rdf:resource="http://purl.org/dc/dcmitype/StillImage" />
        <dc:title />
      </cc:Work>
    </rdf:RDF>
  </metadata>
  <g
     id="layer1"
     inkscape:label="Layer 1"
     inkscape:groupmode="layer"
     transform="translate(-466.49683,-920.63414)">
    <g
       id="g3023">
      <path
         transform="matrix(0.98985837,0,0.03735316,1.1603773,-2.7340837,761.48114)"
         d="m 1288.3333,226.66666 c 0,48.78515 -183.9363,88.33333 -410.8333,88.33333 -226.89699,0 -410.83334,-39.54818 -410.83334,-88.33333 0,-48.78516 183.93635,-88.33334 410.83334,-88.33334 226.897,0 410.8333,39.54818 410.8333,88.33334 z"
         sodipodi:ry="88.333336"
         sodipodi:rx="410.83334"
         sodipodi:cy="226.66666"
         sodipodi:cx="877.5"
         id="path3039"
         style="fill:#000000;fill-opacity:1;fill-rule:nonzero;stroke:#000000;stroke-width:2.33267307;stroke-linecap:round;stroke-linejoin:round;stroke-miterlimit:4;stroke-opacity:1;stroke-dasharray:none"
         sodipodi:type="arc" />
      <path
         sodipodi:nodetypes="cssssscccssssasssscccc"
         inkscape:connector-curvature="0"
         d="m 1020.515,1002.2292 c 0,0 50.7806,4.507 76.0994,7.4127 21.2464,2.4383 42.4958,4.9746 63.6,8.407 10.9661,1.7837 21.9125,3.7694 32.7189,6.328 7.3725,1.7455 14.8956,3.228 21.8739,6.1471 5.672,2.3725 11.1697,5.3545 15.992,9.1302 2.0348,1.5934 5.3306,5.6048 5.3306,5.6048 l 0,0 m -681.08859,-36.8576 c 0,0 31.95466,-12.0505 48.09982,-17.619 16.04938,-5.5356 32.18823,-10.8385 48.46402,-15.6925 11.05056,-3.2957 22.1819,-6.3413 33.37989,-9.1141 14.09614,-3.4904 28.27506,-6.6817 42.53318,-9.4637 13.16367,-2.5686 26.40595,-4.7633 39.68563,-6.6686 9.59346,-1.3764 19.2066,-2.7209 28.87411,-3.4383 11.64608,-0.8642 23.3425,-1.0703 35.02164,-1.0381 10.20699,0.028 20.44088,0.12 30.60156,1.0755 9.11652,0.8573 18.18121,2.3252 27.14525,4.1698 11.39982,2.3459 33.46337,8.5409 33.46337,8.5409 m -415.52476,42.6328 c 8.71743,5.9644 21.13058,13.5748 48.25629,6.6153 l 0,-0.2771"
         style="fill:none;stroke:#ffffff;stroke-width:3.91137218;stroke-linecap:round;stroke-linejoin:round;stroke-miterlimit:4;stroke-opacity:1;stroke-dasharray:none;stroke-dashoffset:0;marker-start:none"
         id="path3080" />
      <path
         sodipodi:nodetypes="ccc"
         inkscape:connector-curvature="0"
         id="path5747"
         d="m 952.43555,1003.7779 c -103.2961,1.1954 -207.1381,-0.4645 -310.43421,0.7308 122.48482,-49.2848 220.5879,-76.786 310.43421,-0.7308 z"
         style="fill:url(#linearGradient3043);fill-opacity:1;stroke:#ffffff;stroke-width:0.61825919;stroke-linecap:round;stroke-linejoin:round;stroke-miterlimit:4;stroke-opacity:0;stroke-dasharray:none" />
      <path
         sodipodi:nodetypes="ssssscsassascsssssssss"
         inkscape:connector-curvature="0"
         id="path5790"
         d="m 927.6645,958.5748 c 1.54701,0.5033 3.39625,1.2109 4.74814,1.6723 2.02603,0.6915 5.95481,2.1751 8.1189,3.0308 17.81946,7.046 32.49248,12.7728 49.63808,20.7105 8.16242,3.7789 16.38178,7.4975 24.17568,11.9662 2.3638,1.3553 6.8237,4.4873 6.8237,4.4873 0,0 -1.2388,0.049 -1.7657,0.3304 -0.3779,0.2011 -0.6698,0.5524 -0.8939,0.9128 -0.1848,0.2969 -0.2605,0.6495 -0.3457,0.9873 -0.048,0.1914 0.052,0.4477 -0.092,0.5843 -0.9628,0.9107 -2.9578,0.4651 -4.4489,0.5881 -9.272,0.7658 -18.88639,3.2101 -27.89796,0.931 -26.02294,-6.5814 -66.3289,-42.286 -66.3289,-42.286 0,0 -0.14053,-2.1342 0.99881,-1.7347 0.95799,0.3359 1.54079,0.4258 2.10116,0.5402 0.2014,0.041 0.51456,-0.183 0.65587,-0.021 0.25709,0.2954 -0.21499,1.3432 -0.4396,1.236 -0.35045,-0.1671 0.0966,-1.0565 0.31553,-1.1615 0.41486,-0.199 1.18527,-1.0239 1.48972,-1.5307 0.15381,-0.2561 0.13918,-1.0442 -0.21632,-1.5164 -0.0961,-0.1278 -0.33084,-0.081 -0.20993,-0.4178 0.20713,-0.5763 3.00491,0.5053 3.57375,0.6904 z"
         style="fill:url(#linearGradient3045);fill-opacity:1;stroke:#ffffff;stroke-width:0.61825919;stroke-linecap:round;stroke-linejoin:round;stroke-miterlimit:4;stroke-opacity:0;stroke-dasharray:none" />
      <g
         id="text3029"
         style="font-size:40px;font-style:normal;font-variant:normal;font-weight:normal;font-stretch:normal;line-height:120.00000477%;letter-spacing:0px;word-spacing:0px;fill:#ffffff;fill-opacity:1;stroke:#000000;stroke-width:2.4000001;stroke-linecap:round;stroke-linejoin:round;stroke-miterlimit:4;stroke-opacity:0.75661376;font-family:NEON GLOW;-inkscape-font-specification:NEON GLOW">
        <path
           id="path3964"
           style="font-size:60px;fill:#ffffff;stroke:#000000"
           d="m 638.47052,1085.681 -3.83789,0 9.86755,-29.0332 c 0.13913,-0.4101 0.68356,-1.6113 1.6333,-3.6035 l -17.12768,28.3301 -0.82031,0 2.12768,-28.3301 c -0.41017,2.0118 -0.68117,3.2129 -0.81299,3.6035 l -9.86755,29.0332 -3.83789,0 15.58227,-45.8496 3.7793,0 -2.69531,29.8242 c -0.0135,0.1563 -0.12331,0.5958 -0.32959,1.3184 0.0989,-0.293 0.28684,-0.7324 0.56396,-1.3184 l 17.57813,-29.8242 3.7793,0 z"
           inkscape:connector-curvature="0" />
        <path
           id="path3966"
           style="font-size:60px;fill:#ffffff;stroke:#000000"
           d="m 664.9256,1085.681 -4.48242,0 -3.08899,-22.0312 -7.48719,22.0312 -4.07226,0 15.58227,-45.8496 4.07227,0 -7.00012,20.5957 16.60949,-20.5957 4.42383,0 -0.0897,0.2637 -17.7887,21.8262 z"
           inkscape:connector-curvature="0" />
        <path
           id="path3968"
           style="fill:#ffffff;stroke:#000000"
           d="m 720.74786,1077.8763 c -0.78228,2.2969 -2.14678,4.1719 -4.0935,5.625 -1.94683,1.4532 -4.06865,2.1797 -6.36548,2.1797 l -36.28125,0 37.39746,-110.03903 36,0 c 2.29679,1.1e-4 3.92496,0.72667 4.88452,2.17969 0.95939,1.45323 1.04801,3.32822 0.26587,5.625 l -11.10937,32.69534 c -0.98738,2.9063 -3.12898,5.3438 -6.42481,7.3125 -3.1026,1.5469 -6.20661,3.0938 -9.31201,4.6406 l 6.48193,5.3437 c 1.92767,1.5001 2.34954,3.8438 1.26563,7.0313 z m 10.42383,-60.4687 11.2544,-33.11719 -24.1875,0 -13.5,39.72659 14.41406,0 z m -19.98193,59.625 12.92871,-38.0391 -7.7168,-6.4687 -14.55469,0 -15.12597,44.5078 z"
           inkscape:connector-curvature="0" />
        <path
           id="path3970"
           style="fill:#ffffff;stroke:#000000"
           d="m 776.19806,1077.7357 c -1.79888,5.2969 -5.34672,7.9453 -10.64356,7.9453 l -23.48437,0 c -5.25001,0 -6.9756,-2.6484 -5.17676,-7.9453 l 17.85059,-52.5234 c 1.80173,-5.2968 5.3276,-7.9453 10.57763,-7.9453 l 23.48438,0 c 5.29681,0 7.04436,2.6485 5.24268,7.9453 z m -9.25488,-0.2812 17.66162,-51.961 -20.60157,0 -17.66162,51.961 z"
           inkscape:connector-curvature="0" />
        <path
           id="path3972"
           style="fill:#ffffff;stroke:#000000"
           d="m 827.64044,1085.681 -9.28125,0 0.646,-1.8984 c -10.55862,1.5469 -16.37698,2.3203 -17.45508,2.3203 -3.98439,0 -6.73683,-1.3477 -8.25732,-4.043 -1.52052,-2.6953 -1.59669,-6.0585 -0.22852,-10.0898 l 13.59668,-40.0078 c 1.43552,-4.2187 4.00998,-7.7226 7.72339,-10.5117 3.71334,-2.789 7.65596,-4.1836 11.82788,-4.1836 l 15.39844,0 14.14599,-41.62503 9.28125,0 z m -6.38965,-8.5078 17.56494,-51.6797 -12.9375,0 c -5.15628,10e-5 -8.63529,2.6485 -10.43701,7.9453 l -12.42334,36.5625 c -1.7842,5.2501 -0.0982,7.8751 5.05811,7.875 1.21872,1e-4 5.61032,-0.2343 13.1748,-0.7031 z"
           inkscape:connector-curvature="0" />
        <path
           id="path3974"
           style="fill:#ffffff;stroke:#000000"
           d="m 904.82159,1017.267 -39.51123,67.8515 -15.8291,26.5078 -9.21094,0 15.89942,-26.5078 6.1831,-67.8515 9.63282,0 -6.63135,53.8593 30.11572,-53.8593 z"
           inkscape:connector-curvature="0" />
        <path
           id="path3976"
           style="font-size:144px;fill:#ffffff;stroke:#000000"
           d="m 966.58234,984.29041 -17.01563,0 -34.45752,101.39059 -9.77344,0 34.45752,-101.39059 -17.15625,0 2.93995,-8.64844 43.94531,0 z"
           inkscape:connector-curvature="0" />
        <path
           id="path3978"
           style="font-size:144px;fill:#ffffff;stroke:#000000"
           d="m 983.54962,1077.7357 c -1.79887,5.2969 -5.32328,7.9453 -10.57324,7.9453 l -22.5,0 c -5.25001,0 -6.9756,-2.6484 -5.17676,-7.9453 l 17.85059,-52.5234 c 1.80173,-5.2968 5.3276,-7.9453 10.57763,-7.9453 l 22.5,0 c 5.24996,0 6.97406,2.6485 5.17236,7.9453 l -8.36279,24.6094 -4.28466,3.3046 -26.01563,0 -8.41113,24.75 20.10937,0 4.24952,-12.5156 9.07031,0 z m 1.82813,-32.0625 7.00048,-20.6015 -20.10937,0 -7.00049,20.6015 z"
           inkscape:connector-curvature="0" />
        <path
           id="path3980"
           style="font-size:144px;fill:#ffffff;stroke:#000000"
           d="m 1036.9871,1077.7357 c -1.7989,5.2969 -5.3233,7.9453 -10.5732,7.9453 l -22.2188,0 c -5.24998,0 -6.97557,-2.6484 -5.17673,-7.9453 l 17.85063,-52.5234 c 1.8017,-5.2968 5.3276,-7.9453 10.5776,-7.9453 l 22.2187,0 c 5.25,0 6.9741,2.6485 5.1724,7.9453 l -4.6362,13.6406 -9.211,0 4.544,-13.3594 -19.4063,0 -17.6616,51.961 19.4063,0 5.1855,-15.2578 9.2109,0 z"
           inkscape:connector-curvature="0" />
        <path
           id="path3982"
           style="font-size:60px;fill:#ffffff;stroke:#000000"
           d="m 1060.7967,1085.681 -3.8379,0 15.5823,-45.8496 3.8379,0 z"
           inkscape:connector-curvature="0" />
        <path
           id="path3984"
           style="font-size:60px;fill:#ffffff;stroke:#000000"
           d="m 1077.6424,1085.681 -5.5371,0 c -2.1875,0 -2.9065,-1.1035 -2.157,-3.3105 l 7.3993,-21.7676 -3.4277,0 1.1645,-3.4277 3.4277,0 3.0158,-8.877 3.8379,0 -3.0158,8.877 4.9805,0 -1.1645,3.4277 -4.9805,0 -7.359,21.6504 4.9804,0 z"
           inkscape:connector-curvature="0" />
        <path
           id="path3986"
           style="font-size:60px;fill:#ffffff;stroke:#000000"
           d="m 1098.824,1085.681 -3.8672,0 0.2692,-0.791 c -4.3994,0.6445 -6.8237,0.9668 -7.2729,0.9668 -1.6602,0 -2.807,-0.5615 -3.4406,-1.6846 -0.6335,-1.123 -0.6653,-2.5244 -0.095,-4.2041 l 5.6653,-16.6699 c 0.5981,-1.7578 1.6708,-3.2177 3.2181,-4.3799 1.5472,-1.162 3.1899,-1.7431 4.9282,-1.7431 l 6.4161,0 5.8941,-17.3438 3.8672,0 z m -2.6623,-3.5449 7.3187,-21.5332 -5.3906,0 c -2.1485,0 -3.5981,1.1035 -4.3488,3.3106 l -5.1764,15.2343 c -0.7434,2.1875 -0.041,3.2813 2.1076,3.2813 0.5078,0 2.3376,-0.098 5.4895,-0.293 z"
           inkscape:connector-curvature="0" />
      </g>
      <path
         transform="matrix(0.97107885,0,0.03664449,1.0975243,14.71799,774.97799)"
         d="m 1288.3333,226.66666 c 0,48.78515 -183.9363,88.33333 -410.8333,88.33333 -226.89699,0 -410.83334,-39.54818 -410.83334,-88.33333 0,-48.78516 183.93635,-88.33334 410.83334,-88.33334 226.897,0 410.8333,39.54818 410.8333,88.33334 z"
         sodipodi:ry="88.333336"
         sodipodi:rx="410.83334"
         sodipodi:cy="226.66666"
         sodipodi:cx="877.5"
         id="path3039-7"
         style="fill:#000000;fill-opacity:0;fill-rule:nonzero;stroke:#ffffff;stroke-width:2.33267307;stroke-linecap:round;stroke-linejoin:round;stroke-miterlimit:4;stroke-opacity:1;stroke-dasharray:none"
         sodipodi:type="arc" />
    </g>
  </g>
</svg>
